<?xml version="1.0" standalone="no"?>
<!DOCTYPE svg PUBLIC "-//W3C//DTD SVG 20010904//EN"
 "http://www.w3.org/TR/2001/REC-SVG-20010904/DTD/svg10.dtd">
<svg version="1.0" xmlns="http://www.w3.org/2000/svg"
 width="12584.000000pt" height="6833.000000pt" viewBox="0 0 12584.000000 6833.000000"
 preserveAspectRatio="xMidYMid meet">

<g transform="translate(0.000000,6833.000000) scale(0.100000,-0.100000)"
fill="#000000" stroke="none">
<path d="M62210 60530 c-129 -4 -291 -13 -360 -19 -69 -6 -234 -18 -366 -26
-133 -8 -291 -21 -350 -29 -60 -8 -171 -20 -247 -26 -76 -6 -175 -17 -220 -25
-45 -8 -136 -19 -202 -25 -66 -6 -151 -18 -188 -26 -37 -7 -109 -19 -160 -24
-51 -6 -132 -19 -182 -29 -49 -10 -119 -22 -155 -25 -36 -4 -101 -15 -145 -25
-44 -10 -102 -22 -130 -25 -57 -8 -250 -46 -405 -81 -58 -13 -127 -27 -153
-30 -26 -3 -73 -15 -104 -26 -31 -10 -68 -19 -82 -19 -14 0 -66 -11 -116 -24
-49 -13 -119 -31 -155 -40 -114 -27 -193 -47 -280 -72 -47 -13 -93 -24 -102
-24 -9 0 -48 -11 -86 -25 -38 -14 -79 -25 -90 -25 -12 0 -50 -11 -85 -24 -34
-13 -82 -27 -106 -31 -24 -4 -60 -14 -80 -23 -20 -8 -61 -21 -91 -27 -30 -7
-84 -23 -120 -35 -132 -45 -156 -53 -225 -72 -38 -11 -74 -23 -80 -28 -5 -4
-39 -16 -75 -25 -36 -9 -69 -20 -75 -25 -5 -5 -39 -16 -75 -25 -36 -9 -70 -21
-76 -26 -7 -5 -40 -18 -75 -29 -35 -10 -102 -33 -149 -50 -47 -17 -105 -38
-130 -47 -25 -8 -57 -21 -72 -29 -14 -8 -56 -23 -92 -34 -36 -11 -68 -24 -70
-29 -3 -5 -22 -12 -41 -15 -20 -4 -50 -15 -68 -26 -18 -10 -51 -24 -75 -30
-24 -6 -58 -20 -75 -31 -18 -10 -39 -19 -47 -19 -8 0 -36 -11 -62 -25 -26 -14
-53 -25 -61 -25 -8 0 -35 -11 -61 -25 -26 -14 -52 -25 -59 -25 -6 0 -34 -11
-62 -24 -27 -14 -88 -41 -135 -61 -84 -36 -127 -56 -225 -101 -27 -12 -81 -37
-120 -54 -113 -51 -310 -145 -350 -168 -11 -6 -101 -51 -200 -100 -99 -49
-227 -115 -285 -146 -58 -31 -127 -67 -155 -81 -27 -14 -72 -38 -100 -54 -27
-16 -68 -38 -90 -50 -22 -11 -64 -34 -92 -51 -29 -16 -75 -42 -101 -57 -27
-16 -88 -50 -135 -78 -48 -27 -101 -57 -118 -66 -16 -10 -47 -28 -67 -41 -20
-13 -46 -29 -57 -35 -57 -33 -183 -109 -205 -123 -14 -9 -45 -30 -70 -45 -25
-16 -64 -41 -87 -57 -23 -15 -44 -28 -47 -28 -3 0 -38 -22 -78 -48 -192 -128
-523 -349 -551 -370 -18 -12 -48 -33 -67 -47 -19 -13 -53 -38 -75 -54 -22 -17
-52 -37 -66 -45 -24 -14 -73 -49 -287 -209 -45 -34 -99 -74 -120 -89 -109 -80
-490 -381 -633 -500 -517 -431 -758 -651 -1262 -1148 -261 -257 -717 -737
-842 -885 -37 -44 -98 -114 -135 -155 -136 -152 -506 -603 -644 -784 -38 -50
-88 -114 -110 -143 -23 -28 -52 -68 -66 -88 -14 -20 -35 -49 -46 -63 -31 -39
-191 -257 -236 -322 -21 -30 -70 -100 -109 -155 -39 -55 -135 -197 -213 -315
-78 -118 -151 -228 -162 -244 -34 -52 -122 -190 -153 -241 -16 -27 -52 -86
-80 -130 -56 -90 -108 -176 -131 -217 -8 -15 -31 -53 -50 -85 -19 -32 -42 -70
-50 -85 -8 -14 -30 -53 -49 -85 -48 -83 -109 -192 -158 -283 -13 -25 -37 -67
-52 -95 -90 -162 -369 -713 -446 -880 -15 -33 -32 -69 -38 -80 -15 -28 -30
-60 -61 -130 -28 -61 -49 -108 -105 -227 -17 -37 -31 -72 -31 -77 0 -6 -11
-32 -24 -58 -39 -77 -76 -162 -76 -176 0 -6 -14 -39 -30 -72 -17 -33 -30 -64
-30 -70 0 -5 -11 -32 -25 -59 -14 -27 -25 -57 -25 -65 0 -9 -8 -29 -18 -46
-10 -16 -22 -43 -26 -60 -4 -16 -18 -54 -32 -83 -13 -29 -24 -58 -24 -65 0 -7
-11 -34 -25 -62 -13 -27 -25 -56 -25 -64 0 -7 -11 -39 -24 -70 -13 -31 -31
-76 -39 -101 -8 -25 -29 -83 -47 -130 -17 -47 -38 -107 -46 -135 -8 -27 -21
-62 -29 -76 -8 -14 -19 -47 -25 -74 -6 -26 -20 -67 -30 -91 -11 -23 -20 -49
-20 -56 0 -7 -14 -51 -30 -98 -17 -46 -30 -91 -30 -100 0 -8 -7 -28 -16 -45
-8 -16 -21 -55 -28 -85 -8 -30 -23 -84 -35 -120 -11 -36 -33 -105 -47 -155
-14 -49 -35 -119 -46 -155 -11 -36 -26 -90 -33 -120 -7 -30 -22 -91 -35 -135
-77 -279 -142 -546 -214 -890 -10 -44 -28 -127 -42 -185 -13 -58 -24 -115 -24
-128 0 -13 -11 -71 -24 -130 -13 -59 -27 -134 -31 -167 -4 -33 -15 -96 -25
-140 -10 -44 -21 -109 -25 -145 -3 -36 -14 -108 -25 -160 -10 -52 -21 -129
-25 -170 -3 -41 -15 -122 -25 -180 -10 -58 -24 -162 -30 -232 -6 -70 -17 -167
-25 -215 -8 -48 -19 -160 -25 -248 -6 -88 -18 -216 -26 -285 -8 -69 -21 -289
-29 -490 -16 -379 -22 -451 -35 -415 -13 36 -20 -178 -19 -605 1 -389 11 -689
19 -555 l3 50 8 -63 c4 -35 15 -226 23 -425 9 -199 22 -416 30 -482 8 -66 20
-194 26 -285 6 -91 20 -223 30 -295 10 -71 22 -170 25 -220 4 -49 13 -122 21
-161 7 -39 20 -131 29 -204 8 -72 21 -160 29 -193 8 -34 17 -93 21 -132 4 -38
15 -108 26 -155 10 -47 23 -123 29 -170 6 -47 17 -107 25 -133 8 -26 19 -85
25 -130 6 -45 18 -105 26 -133 8 -29 21 -87 28 -130 7 -44 20 -108 29 -144 25
-103 75 -322 83 -360 3 -19 15 -61 25 -92 10 -32 19 -69 19 -83 0 -14 11 -58
25 -97 14 -39 25 -82 25 -94 0 -13 11 -58 24 -101 46 -152 68 -229 81 -283 7
-30 22 -84 33 -120 11 -36 33 -105 48 -155 44 -147 75 -245 105 -334 16 -45
29 -90 29 -100 0 -9 7 -29 16 -46 8 -16 22 -53 29 -82 7 -28 19 -61 25 -73 7
-12 20 -50 30 -84 10 -33 33 -99 50 -146 18 -47 39 -105 47 -130 8 -25 26 -70
39 -101 13 -31 24 -63 24 -70 0 -8 12 -36 25 -64 14 -27 25 -55 25 -62 0 -7
11 -36 24 -65 14 -29 28 -67 32 -83 4 -17 16 -43 26 -60 10 -16 18 -37 18 -46
0 -8 11 -38 25 -65 14 -27 25 -54 25 -59 0 -6 13 -37 30 -70 16 -33 30 -65 30
-71 0 -13 51 -129 80 -186 11 -20 20 -42 20 -48 0 -6 14 -41 31 -78 42 -91 78
-167 105 -227 138 -306 472 -966 603 -1195 17 -30 40 -73 52 -95 11 -22 33
-62 49 -90 17 -27 39 -69 51 -92 11 -23 27 -47 35 -54 8 -6 14 -16 14 -21 0
-5 19 -42 43 -81 24 -40 65 -108 91 -152 26 -44 65 -109 87 -144 21 -34 39
-65 39 -68 0 -3 13 -23 28 -46 27 -39 41 -61 105 -164 13 -21 47 -73 75 -116
29 -43 52 -80 52 -83 0 -3 12 -21 27 -41 15 -20 46 -64 68 -98 52 -82 181
-272 244 -360 28 -38 75 -106 105 -150 31 -44 66 -92 80 -106 l25 -27 1533 -6
c843 -3 5504 -9 10358 -12 8112 -5 8852 -5 9160 11 184 9 369 20 410 25 338
37 543 67 745 106 44 9 124 24 178 34 53 10 113 24 133 30 19 7 72 20 117 30
115 26 297 76 417 117 25 8 72 23 105 33 110 35 210 70 229 81 10 6 42 19 70
29 126 45 188 69 199 78 7 5 23 13 37 17 69 21 437 205 644 322 27 15 60 34
75 42 14 8 39 25 54 38 16 12 32 23 37 23 11 0 148 90 273 178 531 376 970
792 1339 1271 100 130 294 413 391 573 119 195 291 531 382 748 15 36 38 88
50 115 13 28 27 64 31 80 4 17 10 35 14 40 7 9 30 69 75 200 10 28 26 73 37
102 11 29 26 76 33 105 7 29 20 73 28 98 21 59 45 147 67 245 10 44 28 121 39
170 48 204 61 263 66 315 4 30 15 100 26 155 10 55 25 170 34 255 8 85 20 184
25 220 5 36 14 178 20 315 6 138 18 387 28 555 24 423 24 1148 0 1345 -10 77
-22 193 -28 258 -6 64 -17 147 -24 185 -8 37 -19 110 -26 162 -6 52 -19 129
-30 170 -10 41 -21 102 -25 134 -4 33 -11 70 -16 83 -5 13 -18 71 -30 129 -11
58 -26 120 -34 137 -7 18 -16 53 -19 80 -4 26 -18 78 -32 117 -13 38 -24 79
-24 90 0 11 -7 37 -16 58 -8 20 -23 66 -34 102 -24 84 -58 186 -77 230 -8 19
-21 55 -28 80 -14 48 -24 75 -131 333 -50 120 -218 464 -279 572 -19 33 -44
79 -55 102 -11 23 -25 45 -31 49 -6 3 -14 17 -19 30 -10 26 -142 232 -227 354
-134 194 -378 499 -522 653 -280 302 -680 639 -1032 871 -41 27 -85 57 -99 67
-14 10 -38 26 -55 34 -16 8 -50 28 -75 45 -25 16 -67 42 -94 57 -26 15 -69 40
-95 55 -25 14 -88 47 -139 74 -51 26 -95 50 -97 55 -3 4 -27 15 -54 24 -27 9
-55 22 -61 30 -6 8 -26 17 -43 21 -18 3 -44 15 -58 25 -14 10 -38 21 -55 25
-16 4 -47 17 -70 30 -22 13 -47 24 -55 24 -7 0 -36 11 -64 24 -72 34 -153 66
-205 81 -25 7 -67 22 -95 33 -74 29 -142 52 -215 72 -36 10 -82 25 -102 34
-21 9 -47 16 -58 16 -12 0 -54 11 -93 24 -40 13 -90 27 -112 31 -22 3 -67 14
-100 25 -33 10 -93 24 -134 30 -40 6 -81 14 -90 19 -9 5 -52 14 -96 21 -44 6
-120 20 -170 31 -49 11 -136 24 -193 30 -57 5 -133 16 -171 24 -37 7 -134 19
-216 25 -83 6 -226 18 -320 28 -153 15 -302 17 -1455 15 -1891 -2 -3746 -14
-3761 -24 -12 -7 -14 -529 -17 -3261 -2 -2404 1 -3260 9 -3280 l11 -28 2433 0
c2302 0 2434 1 2454 18 l22 17 -1 945 c0 873 -1 946 -17 958 -13 9 -325 12
-1479 12 -1230 0 -1463 2 -1473 14 -8 10 -11 366 -11 1372 0 1214 1 1360 15
1370 11 8 347 14 1203 19 1290 8 1786 3 1952 -20 58 -8 168 -21 245 -30 77 -8
167 -21 200 -29 33 -8 99 -19 147 -25 48 -7 104 -18 125 -25 21 -7 72 -19 113
-26 41 -7 83 -17 93 -22 10 -5 55 -18 100 -28 75 -18 163 -44 242 -72 17 -5
55 -19 85 -29 30 -11 73 -28 96 -39 22 -11 44 -20 50 -20 8 0 217 -99 259
-123 11 -6 34 -18 50 -27 17 -9 56 -32 88 -51 31 -19 70 -41 85 -49 23 -13
167 -109 252 -167 57 -40 162 -123 275 -217 312 -261 670 -675 939 -1086 23
-36 51 -78 62 -94 23 -34 54 -84 89 -146 14 -25 39 -67 56 -95 16 -27 38 -68
49 -90 10 -22 26 -51 34 -65 8 -14 22 -40 30 -57 9 -18 22 -45 30 -60 18 -37
68 -143 101 -218 15 -33 35 -78 45 -100 10 -22 23 -58 29 -80 6 -22 17 -49 24
-60 8 -11 18 -36 22 -55 4 -19 16 -53 25 -75 44 -99 160 -514 185 -665 7 -41
20 -104 28 -140 8 -36 18 -94 22 -130 3 -36 14 -114 23 -175 20 -132 22 -500
4 -615 -7 -41 -19 -178 -27 -305 -8 -126 -21 -286 -29 -355 -8 -69 -17 -179
-20 -245 -12 -218 -57 -628 -82 -740 -13 -60 -24 -117 -24 -125 0 -19 -56
-201 -80 -260 -11 -25 -24 -63 -31 -85 -6 -22 -18 -49 -25 -60 -8 -11 -14 -26
-14 -34 0 -26 -67 -174 -200 -441 -96 -193 -111 -223 -146 -280 -12 -19 -49
-82 -84 -140 -60 -101 -132 -214 -215 -336 -32 -48 -155 -214 -287 -389 -181
-237 -370 -432 -583 -598 -33 -25 -73 -57 -89 -69 -53 -42 -259 -182 -386
-263 -38 -25 -179 -108 -250 -147 -105 -59 -490 -248 -507 -248 -4 0 -35 -14
-68 -30 -33 -17 -65 -30 -73 -30 -7 0 -24 -7 -37 -16 -13 -8 -45 -22 -72 -29
-26 -8 -73 -22 -103 -33 -96 -34 -223 -71 -270 -78 -25 -4 -61 -12 -81 -19
-20 -7 -72 -18 -115 -25 -44 -6 -110 -18 -148 -26 -65 -14 -310 -40 -621 -65
-132 -11 -8117 0 -15325 21 -1785 5 -3496 10 -3803 10 l-558 0 -20 23 c-22 23
-129 185 -129 194 0 2 -13 23 -29 46 -26 38 -84 133 -134 221 -10 17 -33 56
-52 86 -18 30 -55 93 -82 139 -26 46 -60 105 -75 130 -15 25 -37 64 -49 86
-11 22 -34 63 -50 90 -15 28 -39 70 -52 95 -14 25 -40 74 -60 110 -38 70 -335
662 -386 771 -17 36 -31 70 -31 76 0 6 -8 21 -19 34 -10 13 -22 35 -26 49 -4
14 -21 54 -37 90 -43 92 -62 136 -94 210 -15 36 -40 93 -56 127 -15 34 -28 66
-28 72 0 5 -11 32 -25 59 -14 28 -25 55 -25 61 0 7 -11 34 -25 61 -14 27 -25
55 -25 62 0 6 -9 30 -19 52 -11 23 -29 66 -39 96 -11 30 -32 87 -47 125 -35
90 -81 215 -105 285 -10 30 -35 100 -55 155 -19 55 -44 127 -54 160 -34 105
-51 159 -68 205 -9 25 -24 74 -34 110 -10 36 -25 85 -33 110 -15 42 -30 94
-90 300 -14 47 -28 101 -31 120 -4 19 -18 67 -31 107 -13 39 -24 81 -24 92 0
12 -9 47 -19 78 -11 32 -25 84 -30 116 -6 32 -18 79 -26 105 -9 26 -22 79 -29
117 -7 39 -20 99 -29 135 -39 159 -68 289 -73 335 -3 28 -14 82 -24 120 -11
39 -24 108 -30 155 -7 47 -18 110 -26 140 -8 30 -19 95 -25 145 -6 49 -17 118
-25 153 -8 35 -19 107 -24 160 -6 53 -19 147 -30 207 -10 61 -24 171 -30 245
-7 74 -13 137 -15 140 -8 13 -25 176 -35 325 -6 88 -18 219 -26 290 -24 220
-47 1036 -40 1440 9 512 23 878 40 1044 9 79 20 214 26 300 6 86 20 217 30
291 10 74 21 169 25 210 6 75 43 336 71 505 8 50 22 137 30 194 8 57 21 133
29 169 9 36 20 98 25 136 6 39 19 112 30 161 11 50 26 122 34 160 8 39 22 108
31 155 9 47 25 114 35 150 11 36 22 85 26 110 3 25 14 72 24 105 11 33 24 87
29 119 6 33 20 87 30 120 11 34 27 93 36 131 10 39 24 97 32 130 8 33 23 83
33 110 10 28 24 74 29 103 6 30 16 63 23 75 6 12 19 54 29 92 10 39 24 90 33
115 33 96 58 177 70 225 7 28 19 64 28 80 8 17 19 48 22 70 4 21 16 55 26 75
9 19 21 51 25 70 4 19 18 59 31 88 13 29 24 60 24 70 0 9 11 40 25 67 13 28
25 58 25 68 0 9 9 36 20 60 11 23 28 67 39 97 39 111 68 186 84 217 9 18 17
40 17 50 0 10 11 36 25 58 13 22 25 49 25 60 0 11 8 34 18 50 10 17 26 50 35
75 23 66 76 192 86 204 5 6 14 29 21 51 7 22 18 47 25 55 7 8 16 26 19 40 4
14 20 52 36 85 15 33 41 87 55 120 65 141 237 497 264 545 5 8 16 31 25 50 9
19 20 42 25 50 5 8 16 29 24 45 8 17 28 55 44 85 16 30 34 65 41 78 24 45 37
68 64 117 15 28 35 66 45 85 9 19 22 42 29 50 6 8 33 56 59 105 26 50 52 96
57 103 6 7 18 25 27 41 9 16 24 44 35 63 27 48 137 232 166 278 14 22 47 77
74 122 28 46 58 94 67 108 9 14 50 77 91 140 41 63 83 128 94 144 193 288 325
478 407 584 26 34 47 64 47 67 0 3 21 32 48 66 26 33 54 71 62 83 27 40 201
264 334 430 412 513 863 1013 1307 1451 257 253 706 666 904 830 33 28 106 88
162 135 242 202 679 543 807 630 28 19 79 55 111 80 33 25 73 54 89 65 16 11
41 29 56 40 40 29 194 134 259 177 31 20 67 45 81 55 42 30 204 136 249 163
23 14 58 37 78 53 20 15 41 27 48 27 7 0 18 7 25 15 10 12 108 73 135 84 6 2
30 18 55 34 25 17 57 39 72 49 15 10 31 18 35 18 4 1 40 21 78 46 39 24 88 53
110 64 22 11 65 36 95 55 30 18 73 43 95 55 22 11 63 34 90 50 28 16 68 38 90
49 22 12 90 48 150 80 61 33 173 92 250 131 77 40 151 78 165 85 33 18 248
121 280 134 14 6 32 15 40 20 15 9 95 46 205 96 33 15 83 38 110 51 28 13 55
24 60 24 5 0 32 11 60 24 122 59 185 86 197 86 7 0 33 11 57 25 23 14 50 25
60 25 9 0 35 11 58 24 23 13 57 27 75 31 18 4 44 14 56 22 13 8 45 21 70 29
26 7 65 23 87 34 21 11 47 20 56 20 9 0 31 7 49 17 36 18 134 54 220 82 30 10
69 25 85 33 17 8 53 21 80 27 28 7 59 18 71 26 12 7 39 17 60 21 21 3 56 15
77 25 21 10 52 21 70 24 18 4 61 17 97 30 36 12 112 37 170 54 58 18 119 37
135 43 17 5 55 17 85 25 30 8 75 21 100 30 25 9 79 24 120 33 41 10 95 25 120
33 63 20 166 47 415 107 50 12 114 28 143 36 28 8 94 24 145 34 91 19 141 30
352 75 61 13 133 27 160 30 28 4 84 15 125 25 41 10 102 21 135 25 33 4 98 15
145 25 47 10 117 21 155 25 39 4 115 15 170 25 55 11 150 24 210 30 61 6 149
17 197 26 48 8 147 19 220 24 73 6 185 17 248 25 63 9 201 20 305 25 105 6
291 18 415 27 322 25 1283 25 1625 0 132 -9 323 -21 425 -27 102 -5 237 -16
300 -24 63 -9 178 -20 255 -26 77 -6 178 -17 225 -25 47 -8 132 -19 190 -25
58 -6 152 -19 210 -30 58 -10 137 -22 175 -26 39 -3 106 -14 150 -24 44 -11
122 -24 172 -30 51 -5 105 -15 120 -21 15 -6 73 -17 128 -25 55 -8 133 -24
174 -35 41 -10 84 -19 96 -19 12 0 55 -9 96 -20 41 -11 101 -25 134 -30 33 -5
92 -18 130 -29 102 -29 230 -60 305 -75 36 -7 93 -22 128 -34 34 -12 71 -22
82 -22 11 0 53 -11 92 -25 39 -14 79 -25 87 -25 15 0 98 -24 246 -72 33 -10
93 -28 134 -38 41 -11 79 -24 85 -29 6 -5 35 -14 64 -20 29 -6 65 -17 80 -25
15 -8 46 -17 67 -21 22 -4 65 -17 95 -30 30 -12 78 -29 105 -38 101 -32 151
-49 195 -67 25 -10 65 -25 90 -33 109 -37 166 -58 185 -69 11 -6 45 -19 75
-29 57 -18 135 -48 205 -80 22 -10 54 -21 70 -25 17 -4 50 -18 74 -31 24 -12
50 -23 57 -23 7 0 34 -11 60 -25 26 -14 54 -25 63 -25 9 0 34 -11 56 -25 22
-13 46 -25 53 -25 12 0 58 -20 202 -87 30 -14 73 -34 95 -44 75 -33 300 -136
328 -150 9 -5 25 -13 35 -19 9 -5 33 -16 52 -25 19 -8 42 -19 50 -25 8 -5 31
-17 50 -25 44 -20 63 -30 164 -82 45 -23 126 -65 181 -93 99 -52 154 -81 250
-135 28 -15 70 -38 95 -52 25 -13 68 -37 95 -53 28 -15 69 -38 92 -50 23 -12
47 -28 54 -36 6 -8 19 -14 29 -14 10 0 24 -7 31 -17 8 -9 32 -25 54 -35 22
-11 60 -32 85 -48 25 -16 63 -39 85 -51 22 -12 51 -29 65 -39 14 -9 44 -29 68
-43 23 -15 61 -39 85 -54 23 -14 58 -36 77 -48 19 -12 55 -35 79 -50 24 -16
51 -34 61 -40 18 -11 21 -12 173 -114 55 -36 113 -75 130 -85 18 -11 57 -38
87 -61 30 -22 62 -44 70 -48 8 -4 33 -21 55 -37 22 -17 74 -54 115 -82 41 -28
95 -68 120 -88 25 -20 58 -45 74 -55 42 -29 70 -50 197 -147 215 -164 314
-242 427 -335 l113 -93 1405 0 c1308 0 1405 1 1411 17 5 13 -73 96 -318 337
-412 407 -905 859 -1158 1061 -47 37 -101 83 -121 101 -20 19 -62 53 -92 77
-31 23 -113 88 -184 145 -186 148 -282 223 -337 262 -27 19 -63 47 -80 61 -18
14 -54 41 -82 60 -27 19 -86 61 -130 95 -44 33 -98 73 -120 87 -22 15 -71 50
-110 77 -84 61 -135 96 -185 130 -21 14 -116 77 -212 141 -223 149 -225 150
-263 174 -18 11 -46 29 -61 39 -82 55 -101 66 -111 66 -6 0 -16 7 -24 16 -7 8
-29 24 -48 35 -20 10 -67 39 -106 64 -38 24 -75 44 -81 45 -6 0 -19 9 -29 20
-10 11 -26 22 -37 25 -10 4 -46 24 -81 46 -34 21 -78 47 -97 57 -19 10 -60 34
-90 52 -30 18 -74 43 -98 56 -23 13 -64 36 -90 50 -26 15 -67 38 -92 52 -25
13 -67 37 -95 53 -27 16 -72 40 -100 54 -27 14 -122 63 -210 110 -88 47 -171
89 -185 95 -14 5 -32 15 -40 20 -8 6 -31 17 -50 26 -50 21 -73 32 -90 44 -8 5
-31 16 -50 25 -19 8 -42 19 -50 24 -8 5 -49 25 -90 44 -65 30 -121 57 -335
157 -22 11 -78 35 -125 55 -47 20 -108 47 -135 61 -28 13 -57 24 -64 24 -8 0
-22 6 -30 14 -9 8 -38 21 -66 31 -27 9 -60 23 -72 31 -12 8 -28 14 -36 14 -7
0 -35 10 -63 23 -58 28 -135 60 -224 94 -67 25 -145 56 -260 100 -91 35 -222
83 -390 143 -19 7 -57 21 -85 32 -27 11 -72 26 -100 33 -63 17 -162 51 -242
81 -34 13 -68 24 -77 24 -8 0 -39 10 -68 21 -29 12 -75 27 -103 34 -27 7 -70
20 -95 28 -25 9 -83 27 -130 41 -47 14 -130 39 -185 55 -55 17 -106 31 -114
31 -8 0 -51 11 -95 24 -132 40 -181 53 -441 116 -49 11 -119 30 -155 40 -36
10 -83 22 -105 25 -22 3 -87 17 -145 30 -202 46 -335 75 -380 81 -25 3 -67 12
-95 20 -27 7 -84 18 -125 24 -41 6 -113 19 -160 30 -47 10 -114 22 -150 26
-36 3 -103 14 -150 24 -47 10 -132 24 -190 30 -58 6 -134 18 -170 25 -36 8
-117 19 -180 25 -63 6 -153 17 -200 25 -47 8 -165 21 -263 30 -97 8 -206 19
-242 25 -35 6 -176 17 -312 25 -136 8 -331 22 -433 30 -221 18 -1326 28 -1690
15z"/>
<path d="M56880 52904 c-403 -27 -819 -72 -1025 -110 -44 -8 -123 -22 -175
-30 -52 -8 -126 -23 -165 -34 -38 -10 -92 -21 -120 -25 -27 -3 -73 -15 -100
-25 -28 -10 -73 -21 -100 -26 -28 -4 -80 -18 -117 -30 -37 -13 -77 -24 -88
-24 -11 0 -37 -7 -58 -16 -20 -9 -66 -24 -102 -34 -88 -25 -188 -59 -225 -75
-16 -8 -59 -24 -95 -35 -36 -12 -69 -26 -74 -31 -6 -5 -16 -9 -24 -9 -8 0 -42
-12 -76 -27 -33 -14 -97 -41 -141 -60 -44 -19 -105 -46 -135 -60 -51 -23 -69
-32 -110 -54 -8 -5 -31 -15 -50 -24 -19 -8 -42 -19 -50 -25 -8 -6 -31 -17 -50
-26 -19 -8 -60 -29 -90 -46 -30 -17 -71 -39 -90 -50 -19 -10 -60 -34 -90 -53
-30 -19 -69 -41 -87 -50 -17 -8 -35 -20 -39 -26 -3 -6 -18 -16 -33 -23 -23
-10 -111 -67 -281 -183 -31 -21 -90 -65 -133 -98 -43 -33 -92 -70 -110 -83
-51 -37 -252 -208 -372 -317 -447 -407 -846 -906 -1144 -1428 -99 -175 -257
-491 -334 -672 -71 -165 -87 -204 -87 -217 0 -7 -12 -35 -25 -63 -14 -27 -25
-58 -25 -67 0 -10 -11 -42 -25 -72 -14 -30 -25 -62 -25 -70 0 -9 -9 -39 -21
-68 -20 -53 -47 -141 -76 -253 -8 -33 -26 -95 -39 -138 -13 -43 -24 -88 -24
-100 0 -12 -11 -62 -24 -112 -13 -49 -27 -113 -30 -141 -4 -28 -13 -76 -21
-107 -8 -31 -19 -98 -25 -149 -6 -51 -20 -142 -30 -203 -11 -60 -24 -178 -30
-261 -6 -83 -15 -188 -20 -235 -6 -46 -14 -210 -20 -364 -5 -154 -17 -462 -27
-683 -14 -346 -15 -438 -5 -645 20 -383 31 -524 51 -642 11 -60 22 -143 26
-184 3 -40 17 -126 31 -190 13 -64 24 -128 24 -142 0 -14 9 -59 19 -100 11
-41 25 -105 31 -144 6 -38 20 -97 31 -129 10 -33 19 -70 19 -83 0 -12 11 -55
24 -95 13 -40 31 -100 39 -133 36 -138 57 -211 67 -227 5 -10 19 -48 29 -85
23 -80 57 -176 101 -288 18 -44 40 -103 50 -132 10 -28 25 -62 33 -75 8 -12
18 -34 22 -48 24 -86 301 -631 386 -758 16 -24 29 -46 29 -49 0 -3 24 -42 53
-87 30 -44 62 -94 73 -110 125 -192 253 -360 447 -591 87 -104 288 -314 398
-416 201 -187 586 -496 715 -574 18 -11 56 -36 86 -56 106 -72 227 -149 233
-149 4 0 21 -10 38 -22 18 -13 48 -31 67 -41 19 -10 62 -33 95 -51 33 -19 116
-62 185 -96 118 -58 136 -67 178 -89 9 -6 51 -24 92 -41 41 -17 96 -42 123
-56 26 -13 54 -24 63 -24 9 0 33 -9 53 -20 33 -18 88 -39 201 -77 25 -8 65
-23 90 -34 25 -10 63 -23 85 -28 22 -5 67 -18 100 -30 109 -38 159 -53 225
-67 36 -8 88 -23 115 -33 28 -10 73 -21 102 -25 29 -4 71 -13 95 -22 23 -8 83
-21 133 -29 50 -8 113 -21 141 -29 27 -8 90 -19 139 -26 50 -6 117 -17 150
-25 33 -7 116 -19 185 -25 69 -6 166 -18 215 -26 263 -42 1058 -54 2655 -39
300 3 1072 6 1716 6 896 0 1175 3 1188 12 15 11 16 267 16 3281 0 2625 -2
3271 -12 3278 -7 4 -1109 8 -2448 8 -1882 0 -2439 -3 -2448 -12 -18 -18 -17
-1887 1 -1911 11 -16 104 -17 1478 -17 1221 0 1468 -2 1478 -13 8 -10 11 -382
11 -1369 0 -745 -2 -1362 -5 -1370 -5 -13 -70 -16 -453 -22 -1292 -19 -2111
-27 -2232 -21 -481 22 -963 82 -1285 161 -33 8 -96 23 -140 33 -44 10 -96 25
-116 33 -20 9 -56 19 -80 23 -23 4 -63 16 -88 27 -24 10 -60 23 -80 28 -114
28 -615 272 -695 339 -9 7 -29 21 -46 30 -30 16 -171 112 -180 121 -3 3 -30
23 -60 45 -246 178 -584 508 -810 792 -259 325 -380 504 -569 838 -43 77 -198
387 -206 414 -4 14 -18 45 -31 69 -13 25 -24 50 -24 56 0 6 -11 33 -25 60 -14
27 -25 55 -25 62 0 6 -11 36 -25 66 -14 29 -25 61 -25 71 0 9 -9 36 -19 60
-11 23 -27 71 -36 107 -9 36 -20 70 -25 75 -4 6 -13 37 -20 70 -6 33 -20 83
-30 110 -10 28 -21 73 -25 100 -4 28 -16 77 -25 110 -10 33 -23 98 -30 145 -6
47 -18 113 -26 147 -18 79 -44 376 -44 510 0 131 26 542 45 703 8 69 19 206
25 305 6 99 17 239 25 310 8 72 20 200 25 285 19 275 78 546 175 800 10 25 26
69 36 98 10 29 25 62 34 74 8 13 15 29 15 38 0 8 12 40 26 70 15 30 40 84 56
120 30 67 46 100 65 135 6 11 16 31 22 45 11 26 81 155 160 296 24 44 54 93
67 111 13 17 24 36 24 41 0 4 13 26 30 48 16 21 30 43 30 48 0 5 8 18 17 28
10 11 26 34 38 53 104 172 366 516 572 754 237 274 789 677 1213 885 19 10 42
22 50 27 8 5 31 16 50 25 19 9 44 21 55 27 29 16 63 32 125 60 30 13 80 36
110 50 30 14 72 30 92 37 21 6 40 16 43 20 3 5 25 14 48 20 23 6 61 20 84 30
23 11 59 24 80 29 21 5 64 19 95 30 32 12 67 21 78 21 11 0 46 9 78 20 31 11
98 27 148 35 51 8 104 19 119 25 15 6 84 17 154 25 69 8 176 22 236 32 100 15
268 17 1930 21 3059 6 18065 -17 18085 -28 16 -9 127 -165 139 -195 2 -5 16
-28 31 -50 15 -22 39 -59 53 -82 15 -24 38 -60 52 -81 14 -21 25 -42 25 -46 0
-4 10 -22 22 -39 13 -18 30 -44 38 -59 26 -45 80 -140 144 -249 68 -117 222
-400 303 -554 5 -11 17 -33 26 -50 9 -16 58 -113 108 -215 50 -102 98 -198
107 -215 9 -16 19 -37 22 -45 4 -8 19 -38 33 -66 15 -29 27 -58 27 -66 0 -7
10 -29 23 -48 13 -19 29 -54 37 -78 7 -23 19 -47 27 -53 7 -6 13 -19 13 -28 0
-15 33 -89 86 -192 13 -26 24 -55 24 -65 0 -11 11 -37 25 -59 13 -22 25 -47
25 -55 0 -8 14 -42 30 -75 16 -33 30 -66 30 -73 0 -7 11 -35 25 -62 14 -27 25
-55 25 -62 0 -7 12 -35 25 -63 14 -27 25 -56 25 -63 0 -7 11 -34 24 -60 13
-26 27 -63 31 -82 4 -19 11 -40 17 -46 5 -7 19 -43 32 -80 13 -38 32 -91 41
-119 10 -27 26 -69 36 -93 11 -23 23 -59 29 -80 5 -20 28 -89 50 -152 23 -63
46 -133 51 -155 5 -22 18 -58 28 -80 10 -22 22 -58 25 -80 4 -22 16 -60 26
-85 10 -25 24 -70 31 -100 6 -30 17 -66 24 -80 7 -14 16 -41 19 -60 4 -19 18
-71 31 -115 51 -168 74 -252 84 -303 6 -29 17 -67 25 -86 7 -18 17 -57 21 -87
4 -30 16 -76 26 -104 10 -27 23 -79 29 -115 5 -36 19 -94 30 -128 11 -35 20
-76 20 -91 0 -15 11 -65 25 -112 13 -46 25 -97 25 -114 0 -16 11 -75 24 -130
22 -93 37 -168 72 -370 71 -413 93 -551 106 -665 5 -47 20 -164 33 -260 13
-96 27 -220 30 -275 4 -55 13 -149 21 -210 8 -60 18 -186 24 -280 5 -93 18
-300 27 -460 24 -394 24 -1159 0 -1550 -10 -154 -22 -359 -28 -455 -5 -96 -14
-206 -20 -245 -5 -38 -16 -150 -24 -249 -8 -98 -22 -217 -30 -265 -8 -47 -19
-135 -25 -196 -5 -60 -19 -156 -30 -213 -11 -56 -20 -117 -20 -135 0 -30 -15
-118 -71 -417 -12 -63 -27 -149 -34 -190 -13 -84 -48 -252 -72 -350 -9 -36
-22 -99 -29 -140 -8 -41 -21 -97 -29 -125 -9 -27 -24 -88 -35 -135 -32 -146
-56 -244 -73 -296 -9 -27 -19 -67 -23 -89 -4 -22 -15 -62 -25 -90 -9 -27 -23
-77 -29 -110 -7 -33 -17 -69 -23 -80 -6 -11 -18 -51 -28 -90 -9 -38 -24 -90
-32 -115 -21 -61 -53 -161 -76 -240 -23 -78 -44 -142 -76 -230 -13 -36 -27
-79 -30 -97 -3 -17 -15 -48 -26 -69 -10 -21 -19 -47 -19 -57 0 -11 -11 -45
-24 -76 -13 -31 -31 -76 -39 -101 -8 -25 -27 -76 -42 -115 -15 -38 -37 -99
-50 -135 -13 -36 -30 -78 -39 -95 -9 -16 -16 -36 -16 -43 0 -7 -10 -34 -22
-60 -12 -26 -30 -69 -41 -97 -47 -124 -54 -142 -69 -170 -8 -16 -19 -41 -23
-55 -7 -24 -26 -67 -80 -183 -14 -30 -25 -57 -25 -61 0 -4 -14 -37 -31 -74
-17 -37 -42 -92 -56 -122 -66 -144 -86 -186 -94 -200 -5 -8 -12 -22 -15 -30
-13 -33 -76 -166 -85 -180 -5 -8 -16 -31 -24 -50 -9 -19 -20 -43 -25 -52 -6
-10 -14 -26 -20 -35 -5 -10 -16 -34 -25 -53 -8 -19 -39 -80 -68 -135 -30 -55
-78 -145 -107 -200 -29 -55 -65 -122 -81 -150 -15 -27 -38 -68 -49 -90 -12
-22 -34 -62 -50 -90 -16 -27 -41 -70 -55 -95 -14 -25 -39 -67 -55 -95 -16 -27
-36 -63 -45 -80 -8 -16 -42 -73 -75 -125 -33 -52 -69 -113 -81 -135 -12 -22
-29 -51 -39 -65 -9 -14 -28 -43 -42 -65 -14 -22 -47 -74 -74 -115 -27 -41 -51
-79 -53 -85 -4 -9 -95 -148 -128 -195 -10 -14 -59 -87 -110 -163 -51 -76 -113
-166 -138 -200 -52 -71 -144 -198 -175 -242 -36 -51 -266 -355 -337 -446 -450
-574 -942 -1122 -1494 -1665 -198 -194 -685 -640 -798 -730 -13 -10 -55 -46
-94 -79 -117 -101 -162 -139 -197 -165 -19 -14 -74 -59 -124 -100 -50 -42
-101 -82 -113 -90 -11 -8 -70 -53 -130 -100 -59 -47 -130 -101 -158 -122 -27
-20 -68 -50 -90 -67 -158 -120 -495 -359 -675 -478 -14 -9 -36 -23 -49 -32
-13 -9 -31 -21 -40 -26 -9 -6 -42 -28 -75 -50 -32 -22 -66 -44 -75 -50 -9 -5
-52 -34 -97 -62 -44 -29 -85 -53 -91 -53 -6 0 -16 -7 -24 -16 -7 -8 -29 -24
-48 -35 -103 -58 -126 -71 -149 -89 -13 -11 -30 -20 -37 -20 -7 0 -18 -6 -24
-14 -7 -8 -31 -24 -54 -36 -23 -11 -67 -36 -97 -55 -30 -19 -68 -41 -85 -50
-16 -9 -52 -29 -80 -45 -27 -16 -66 -37 -85 -47 -19 -9 -42 -23 -50 -29 -8 -7
-55 -33 -105 -59 -49 -26 -117 -62 -150 -80 -63 -35 -228 -121 -273 -143 -15
-7 -38 -19 -52 -27 -14 -8 -41 -22 -60 -30 -19 -9 -42 -20 -50 -25 -8 -6 -31
-17 -50 -25 -19 -9 -43 -20 -52 -25 -41 -23 -76 -40 -293 -140 -60 -28 -131
-62 -158 -75 -26 -14 -52 -25 -58 -25 -12 0 -100 -40 -190 -86 -26 -13 -55
-24 -65 -24 -11 0 -37 -12 -59 -25 -22 -14 -47 -25 -55 -25 -8 0 -28 -7 -45
-16 -28 -15 -79 -36 -210 -85 -27 -10 -68 -27 -90 -39 -21 -11 -45 -20 -52
-20 -7 0 -37 -11 -67 -25 -30 -14 -61 -25 -68 -25 -8 0 -32 -9 -53 -20 -22
-12 -60 -26 -85 -32 -25 -6 -54 -16 -65 -22 -23 -12 -158 -61 -226 -81 -26 -7
-60 -20 -76 -28 -16 -9 -47 -19 -68 -22 -22 -4 -57 -16 -77 -25 -21 -10 -61
-23 -90 -30 -29 -7 -65 -19 -79 -26 -14 -7 -52 -19 -85 -28 -32 -8 -79 -21
-104 -30 -25 -8 -83 -26 -130 -40 -47 -14 -130 -39 -185 -55 -55 -17 -107 -31
-115 -31 -8 0 -51 -11 -95 -24 -132 -40 -236 -68 -315 -83 -41 -8 -82 -19 -92
-24 -11 -6 -57 -17 -103 -25 -46 -8 -102 -21 -124 -28 -21 -8 -61 -17 -88 -21
-26 -3 -93 -17 -148 -30 -117 -27 -246 -53 -330 -67 -33 -5 -114 -21 -180 -34
-114 -23 -166 -31 -420 -69 -60 -9 -166 -25 -235 -36 -69 -11 -176 -24 -238
-29 -63 -6 -155 -17 -206 -25 -51 -8 -162 -20 -247 -25 -85 -6 -212 -17 -284
-25 -257 -27 -778 -46 -1303 -46 -438 0 -1098 23 -1289 45 -70 8 -200 20 -288
26 -88 6 -201 17 -252 25 -50 8 -145 19 -210 25 -65 6 -167 19 -228 29 -60 11
-141 22 -180 26 -38 4 -110 15 -160 25 -49 10 -119 21 -155 25 -36 4 -101 15
-145 25 -44 11 -107 22 -140 26 -33 3 -102 17 -154 30 -51 13 -104 24 -118 24
-22 0 -101 17 -303 65 -36 8 -99 22 -140 30 -41 9 -104 24 -140 35 -36 10 -83
22 -105 25 -22 4 -76 17 -120 30 -79 22 -143 39 -280 74 -38 10 -83 24 -100
30 -16 7 -60 19 -98 27 -38 8 -78 19 -90 26 -12 6 -51 19 -87 29 -159 44 -232
66 -400 124 -136 47 -196 67 -240 79 -25 7 -58 20 -75 28 -16 8 -52 21 -80 27
-27 7 -55 17 -61 22 -6 5 -42 20 -80 33 -143 50 -182 65 -212 80 -17 9 -40 16
-50 16 -10 0 -40 11 -65 24 -25 14 -60 29 -79 35 -48 14 -157 59 -199 82 -20
10 -42 19 -49 19 -7 0 -36 11 -64 24 -28 13 -85 38 -126 56 -41 17 -98 42
-125 56 -28 13 -58 24 -66 24 -9 0 -22 7 -29 14 -6 8 -28 20 -48 27 -20 6 -57
22 -82 34 -25 12 -70 34 -100 48 -114 53 -416 199 -430 208 -8 5 -31 16 -50
24 -19 9 -42 20 -50 25 -8 6 -37 21 -65 35 -27 13 -57 29 -65 35 -8 5 -26 15
-40 20 -14 6 -52 26 -85 45 -33 19 -78 44 -100 55 -22 12 -65 35 -95 52 -30
17 -75 41 -100 54 -25 13 -67 38 -95 54 -27 17 -64 37 -82 45 -17 8 -34 19
-37 24 -3 5 -25 18 -48 30 -24 12 -68 37 -98 56 -30 19 -66 40 -80 47 -14 7
-39 23 -56 35 -17 13 -34 23 -38 23 -4 0 -22 11 -40 25 -18 14 -37 25 -41 25
-4 0 -23 11 -41 25 -18 14 -36 25 -39 25 -4 0 -25 13 -48 29 -23 15 -64 42
-92 59 -27 17 -77 50 -110 72 -33 22 -107 72 -165 110 -134 89 -426 291 -505
351 -22 16 -51 37 -65 47 -21 15 -174 128 -264 195 -16 12 -57 45 -92 72 -35
28 -84 66 -110 85 -25 19 -51 40 -58 45 -50 45 -235 191 -261 206 -30 18 -81
19 -1419 19 -763 0 -1391 -2 -1396 -5 -4 -3 -5 -15 -2 -27 11 -43 647 -665
1027 -1006 193 -173 633 -544 790 -667 42 -33 118 -92 168 -132 174 -137 341
-263 527 -397 178 -129 216 -156 325 -231 141 -97 307 -209 340 -230 18 -11
46 -29 61 -39 74 -50 255 -166 304 -196 66 -40 115 -70 154 -96 16 -10 44 -28
62 -39 19 -11 75 -45 125 -75 50 -30 111 -67 137 -82 26 -14 69 -39 96 -55 27
-15 67 -38 90 -51 22 -12 64 -36 91 -52 28 -16 68 -38 90 -50 22 -12 63 -34
90 -50 28 -16 68 -38 90 -50 22 -11 90 -47 150 -79 61 -32 243 -125 405 -206
162 -81 302 -151 310 -156 8 -5 22 -12 30 -15 8 -3 42 -18 75 -34 72 -34 151
-69 225 -103 30 -13 85 -38 122 -56 37 -17 70 -31 75 -31 5 0 26 -10 48 -21
22 -12 55 -27 75 -35 19 -7 73 -29 120 -49 47 -20 105 -44 130 -52 25 -9 50
-20 57 -25 7 -5 43 -21 80 -35 130 -48 158 -59 178 -70 11 -6 45 -18 75 -28
30 -10 66 -23 80 -31 14 -7 48 -20 75 -29 116 -39 186 -65 205 -75 12 -6 43
-18 68 -25 70 -20 193 -64 227 -80 17 -8 53 -19 80 -25 27 -6 55 -16 62 -21 7
-6 43 -19 80 -29 37 -10 91 -26 118 -35 28 -9 70 -24 95 -32 25 -9 74 -23 110
-33 36 -9 75 -22 87 -29 12 -6 50 -17 85 -25 35 -8 90 -23 123 -34 33 -11 78
-24 100 -30 92 -24 164 -44 225 -63 36 -11 92 -26 125 -33 88 -20 221 -54 295
-75 36 -11 85 -22 110 -26 25 -3 72 -15 105 -25 33 -10 92 -23 131 -29 39 -6
88 -17 111 -25 22 -8 73 -19 114 -25 41 -7 108 -20 149 -30 41 -11 100 -22
130 -26 30 -3 89 -14 130 -25 41 -10 102 -21 135 -25 33 -4 96 -15 140 -25 44
-10 109 -21 145 -25 36 -3 110 -15 165 -25 55 -11 154 -26 220 -34 66 -8 172
-22 235 -30 238 -33 528 -66 625 -71 55 -3 181 -15 280 -25 99 -10 315 -24
480 -31 310 -12 467 -24 390 -29 -121 -9 200 -18 630 -18 430 1 713 9 605 18
-70 6 93 18 400 30 168 6 384 20 480 30 96 11 225 22 285 25 61 4 173 15 250
26 77 10 191 23 252 29 62 6 148 17 190 25 43 8 125 19 183 25 58 6 146 20
195 30 50 10 122 21 160 25 39 4 106 15 150 25 44 10 107 21 140 25 33 4 94
15 135 25 41 10 98 21 125 25 28 3 97 17 155 30 116 26 213 47 335 71 44 9
107 24 140 34 33 10 80 21 105 25 25 4 68 14 95 22 28 8 86 23 130 33 95 22
180 44 290 75 121 35 193 54 271 74 39 10 75 21 81 24 6 4 51 18 100 31 48 14
111 32 138 41 28 9 88 27 135 42 47 14 108 34 135 44 28 10 77 26 109 34 33 9
65 20 71 25 6 5 33 14 59 20 27 6 68 20 92 31 24 11 59 22 77 26 17 3 55 17
82 30 28 12 58 23 68 23 9 0 36 9 60 19 41 20 119 48 207 77 25 8 61 23 80 33
19 10 51 22 70 26 19 4 49 15 65 23 17 9 50 24 75 33 148 56 179 69 220 88 25
11 51 21 59 21 8 0 22 6 30 14 9 7 36 20 61 29 63 22 192 76 204 86 6 5 29 14
51 21 22 7 47 18 55 25 8 7 26 16 40 20 14 4 52 20 85 35 33 16 92 42 130 60
39 17 77 35 85 41 8 5 22 12 30 15 22 9 162 74 183 85 25 13 34 18 237 119
247 122 263 130 280 141 8 5 38 20 65 34 28 14 64 32 80 41 17 8 37 19 45 24
8 6 35 21 60 34 25 13 70 38 100 54 30 17 73 41 95 53 22 11 63 34 90 50 90
51 146 84 190 109 24 14 65 38 91 53 98 56 276 162 314 187 23 16 47 31 148
93 20 13 50 32 66 43 16 10 36 23 45 29 31 19 176 112 205 131 16 10 61 40
100 67 39 26 84 55 100 65 16 9 41 27 56 40 15 12 31 22 34 22 3 0 32 20 63
44 32 23 69 49 83 56 14 7 52 34 85 59 33 26 85 64 115 84 30 21 73 51 95 68
22 16 51 37 65 47 14 9 67 48 117 87 51 38 114 86 140 105 27 19 74 55 105 80
32 25 95 74 140 110 46 35 155 123 242 195 88 71 201 164 252 205 523 427
1434 1312 1914 1860 36 41 113 129 171 195 170 194 452 537 626 761 27 34 74
95 105 135 80 103 306 409 404 548 103 146 161 231 298 436 73 110 141 213
152 229 10 15 28 43 39 61 11 17 29 45 39 61 11 16 30 46 43 67 12 20 34 54
46 75 13 20 32 51 43 67 77 122 167 273 299 505 14 25 39 68 54 95 36 61 66
116 98 175 14 25 38 68 53 95 16 28 46 84 68 125 197 378 279 540 362 715 28
61 56 119 62 130 19 34 25 48 52 108 43 96 76 169 107 233 16 34 29 65 29 70
0 5 11 31 24 59 23 46 53 117 111 255 13 30 37 87 54 126 17 39 31 77 31 85 0
8 5 20 10 25 6 6 22 41 35 77 61 164 73 194 88 224 9 18 17 40 17 50 0 10 7
32 16 48 15 28 41 98 79 210 9 28 23 66 32 85 9 19 22 55 29 80 7 25 32 97 54
160 23 63 47 135 54 160 7 25 21 65 29 90 26 72 48 140 67 210 11 36 28 94 40
130 12 36 32 101 45 145 13 44 35 118 49 165 15 47 26 92 26 100 0 8 11 48 24
90 26 80 46 156 76 285 10 44 25 100 33 125 9 25 19 65 22 90 4 25 15 72 25
105 11 33 24 89 30 125 7 36 20 97 30 135 10 39 21 90 25 115 3 25 13 70 22
100 8 30 21 91 28 135 15 87 45 245 76 395 11 52 24 133 30 180 5 47 16 112
24 145 7 33 19 106 25 162 6 57 17 133 25 170 8 38 19 120 25 183 6 63 19 169
30 235 10 66 21 165 25 220 3 55 15 174 25 265 11 91 24 257 30 370 13 269 21
351 30 345 18 -11 21 139 18 1033 -2 680 -6 935 -14 940 -14 8 -21 79 -34 352
-6 113 -19 279 -30 370 -10 91 -21 208 -25 260 -4 52 -15 151 -25 220 -10 69
-22 161 -25 205 -4 44 -15 127 -25 185 -11 58 -24 150 -30 204 -6 54 -17 129
-25 165 -8 36 -19 104 -25 151 -6 47 -20 128 -30 180 -11 52 -26 131 -34 175
-42 226 -64 335 -111 540 -9 39 -23 104 -31 145 -8 41 -21 95 -29 120 -8 25
-20 72 -26 105 -5 33 -19 89 -29 125 -11 36 -27 97 -36 135 -40 166 -47 193
-65 246 -11 31 -24 83 -30 115 -6 33 -14 64 -18 69 -4 6 -12 28 -18 50 -6 22
-19 67 -28 100 -9 33 -25 89 -34 125 -10 36 -23 75 -29 86 -6 11 -18 51 -27
89 -8 38 -20 74 -25 80 -5 6 -16 38 -24 71 -7 32 -23 79 -33 104 -11 25 -23
61 -27 81 -3 21 -13 51 -22 67 -8 17 -21 52 -28 79 -20 69 -54 169 -82 236
-13 32 -24 66 -24 75 0 9 -7 31 -16 47 -9 17 -26 59 -39 95 -24 67 -58 156
-102 270 -13 36 -35 92 -47 125 -13 33 -30 74 -39 92 -9 18 -17 38 -17 45 0 7
-8 29 -19 48 -10 19 -22 46 -26 60 -4 14 -17 48 -30 75 -12 28 -35 79 -50 115
-16 36 -41 93 -57 127 -15 34 -28 65 -28 70 0 4 -11 30 -24 58 -14 27 -38 79
-54 115 -71 156 -84 186 -93 203 -24 46 -85 174 -99 207 -5 14 -14 32 -19 40
-5 8 -53 103 -106 210 -53 107 -121 240 -150 295 -30 55 -65 123 -79 150 -14
28 -39 73 -54 100 -29 51 -49 89 -63 115 -4 8 -34 60 -65 115 -31 55 -65 116
-76 135 -10 19 -34 60 -53 90 -18 30 -54 91 -80 135 -25 44 -73 123 -105 175
-33 52 -63 102 -67 110 -4 8 -20 36 -37 62 -17 25 -53 81 -80 125 -60 96 -147
230 -195 301 -20 28 -47 70 -61 91 -14 22 -44 67 -67 100 -24 34 -43 63 -43
66 0 3 -22 35 -50 70 -27 35 -50 67 -50 70 0 3 -24 38 -53 78 -29 40 -70 98
-91 129 -21 31 -49 67 -62 79 l-23 22 -10473 2 c-5760 2 -10498 1 -10528 -1z"/>
<path d="M113649 14490 c-47 -4 -123 -15 -170 -23 -46 -8 -113 -18 -149 -22
-36 -3 -101 -14 -145 -25 -44 -10 -111 -26 -150 -34 -38 -8 -99 -22 -135 -32
-59 -15 -94 -26 -245 -79 -27 -9 -70 -24 -95 -32 -43 -14 -87 -33 -210 -90
-98 -46 -250 -125 -288 -152 -15 -10 -56 -37 -92 -61 -204 -136 -453 -381
-573 -563 -41 -62 -80 -125 -89 -142 -8 -16 -25 -50 -37 -75 -12 -25 -31 -61
-41 -82 -11 -20 -24 -53 -29 -75 -5 -21 -18 -60 -29 -88 -32 -78 -71 -260 -82
-379 -23 -252 -4 -632 41 -811 38 -152 124 -398 150 -431 5 -7 20 -31 33 -55
52 -100 91 -159 172 -259 99 -123 204 -222 365 -343 41 -31 80 -57 86 -57 6 0
17 -7 24 -16 7 -9 32 -26 55 -38 47 -24 125 -65 169 -90 17 -9 35 -16 41 -16
6 0 22 -9 36 -19 13 -11 38 -23 54 -27 16 -4 49 -18 73 -31 24 -12 50 -23 57
-23 7 0 37 -11 66 -24 29 -13 69 -27 88 -31 19 -4 51 -15 70 -25 19 -9 53 -20
75 -24 22 -4 63 -15 90 -25 28 -10 70 -22 95 -26 25 -3 70 -15 100 -26 30 -10
87 -23 125 -29 39 -5 92 -17 119 -25 26 -8 87 -19 135 -25 47 -6 111 -18 142
-25 31 -8 103 -20 160 -25 57 -6 154 -19 214 -30 61 -10 153 -21 205 -25 52
-4 140 -15 195 -25 55 -11 125 -22 155 -26 30 -3 98 -16 150 -29 52 -13 113
-26 135 -29 22 -4 63 -15 90 -25 28 -11 68 -23 90 -29 61 -15 182 -59 207 -76
13 -8 38 -17 55 -21 18 -4 36 -11 39 -17 4 -6 30 -21 58 -34 28 -14 70 -37 92
-52 23 -15 61 -40 85 -56 61 -41 178 -160 221 -226 49 -76 98 -170 98 -189 0
-9 10 -45 21 -81 17 -53 21 -91 21 -200 0 -74 -4 -153 -10 -175 -41 -161 -51
-197 -60 -208 -5 -7 -15 -28 -22 -47 -31 -77 -125 -204 -208 -280 -70 -65 -69
-64 -147 -116 -136 -90 -297 -165 -440 -205 -309 -85 -496 -108 -860 -108
-336 0 -564 26 -805 94 -47 13 -94 26 -105 28 -35 9 -169 58 -210 76 -104 48
-263 129 -304 155 -120 76 -150 98 -201 141 -223 191 -364 365 -475 588 -33
67 -55 99 -69 103 -12 3 -44 -8 -76 -25 -54 -30 -229 -119 -299 -154 -20 -10
-43 -22 -51 -27 -8 -5 -60 -32 -115 -60 -55 -28 -163 -83 -240 -124 -77 -40
-156 -81 -175 -91 -19 -10 -46 -24 -60 -32 -14 -7 -48 -24 -76 -38 -27 -14
-61 -36 -74 -50 -21 -22 -22 -29 -12 -45 15 -25 21 -36 66 -135 20 -44 41 -87
46 -95 5 -8 21 -37 35 -65 46 -89 57 -108 124 -209 78 -117 83 -124 138 -198
92 -123 361 -392 459 -458 12 -8 60 -42 105 -75 46 -33 113 -77 149 -98 36
-21 72 -42 80 -48 8 -5 38 -21 65 -34 28 -14 57 -29 65 -34 26 -16 146 -71
156 -71 5 0 31 -11 58 -25 27 -14 57 -25 65 -25 9 0 36 -10 61 -21 25 -11 74
-29 110 -39 36 -10 92 -26 125 -35 350 -98 714 -151 1150 -166 301 -11 698 1
855 25 52 8 141 19 196 25 56 6 139 19 185 30 46 11 107 24 134 29 112 20 349
87 435 122 25 10 65 25 90 33 87 29 170 63 182 75 7 7 17 12 22 12 6 0 52 21
104 48 51 26 105 53 120 61 15 7 43 23 62 36 19 12 58 36 85 53 84 52 112 73
238 178 275 228 467 488 606 824 66 160 128 419 142 588 20 268 6 665 -30 817
-54 223 -81 319 -111 379 -11 23 -20 47 -20 53 0 9 -45 98 -99 198 -15 27 -61
98 -108 165 -42 61 -148 182 -204 234 -99 92 -297 246 -316 246 -6 0 -16 7
-23 16 -8 8 -27 22 -44 30 -17 8 -58 30 -91 49 -54 31 -101 54 -260 130 -27
13 -63 27 -80 31 -16 4 -51 18 -76 31 -26 13 -55 23 -66 23 -10 0 -34 8 -53
19 -20 10 -62 24 -95 31 -33 7 -69 17 -80 23 -32 17 -334 91 -500 122 -44 9
-120 25 -170 35 -49 11 -131 24 -182 30 -51 6 -123 16 -160 24 -37 8 -122 19
-188 26 -66 6 -156 17 -200 25 -44 8 -125 19 -180 25 -55 6 -131 18 -170 26
-38 9 -106 22 -150 29 -105 17 -243 51 -330 81 -38 13 -77 24 -85 24 -8 0 -37
11 -65 25 -27 13 -54 25 -59 25 -11 0 -158 73 -206 101 -76 46 -178 139 -237
218 -35 46 -63 89 -63 96 0 7 -11 37 -25 67 -20 44 -26 76 -31 169 -9 180 13
307 73 424 9 17 23 44 31 60 57 111 200 252 347 340 144 87 411 183 555 200
30 4 84 13 120 21 110 23 417 37 590 26 168 -11 358 -41 485 -77 44 -12 98
-27 120 -33 68 -18 188 -62 210 -76 11 -7 35 -17 52 -20 18 -4 42 -15 55 -25
13 -10 40 -23 60 -30 20 -7 42 -19 48 -27 7 -7 18 -14 24 -14 37 0 318 -203
427 -310 36 -35 128 -146 162 -194 22 -31 63 -35 98 -8 20 15 106 61 248 130
14 7 37 19 51 26 14 8 70 37 125 65 55 28 107 55 115 59 34 19 87 46 115 59
17 8 37 18 45 24 8 5 60 32 115 59 55 28 116 59 135 70 19 11 39 20 45 20 9 0
75 57 75 65 0 2 -19 36 -41 77 -192 342 -428 610 -730 829 -35 25 -77 54 -94
63 -16 9 -55 32 -85 51 -30 19 -73 43 -95 54 -22 11 -51 27 -65 35 -14 8 -56
29 -95 46 -38 17 -88 40 -110 51 -41 19 -126 50 -205 74 -25 7 -72 23 -105 34
-94 31 -214 63 -290 76 -38 7 -99 20 -135 28 -36 9 -110 21 -165 27 -55 6
-138 17 -185 26 -99 17 -835 28 -981 14z"/>
<path d="M12210 14430 c-251 -25 -394 -43 -460 -56 -41 -8 -104 -20 -140 -26
-36 -6 -103 -21 -150 -34 -47 -13 -92 -24 -100 -24 -18 0 -163 -44 -245 -75
-33 -12 -75 -26 -94 -30 -19 -4 -54 -18 -79 -31 -25 -13 -51 -24 -58 -24 -20
0 -297 -131 -409 -194 -133 -74 -303 -186 -424 -279 -384 -294 -725 -685 -949
-1087 -14 -25 -38 -67 -54 -95 -15 -27 -33 -61 -38 -75 -13 -29 -31 -66 -47
-95 -22 -39 -73 -152 -73 -161 0 -5 -9 -25 -19 -45 -11 -19 -25 -55 -32 -80
-7 -24 -18 -53 -25 -64 -7 -11 -19 -45 -28 -76 -9 -31 -23 -69 -31 -85 -8 -16
-15 -39 -15 -51 0 -12 -10 -48 -21 -80 -12 -31 -30 -91 -39 -132 -10 -42 -25
-105 -33 -141 -27 -112 -66 -331 -77 -434 -10 -99 -28 -158 -31 -106 -1 18 -4
13 -10 -15 -10 -50 -9 -1029 1 -1070 4 -16 8 -22 9 -12 0 10 5 16 10 13 10 -6
17 -48 31 -189 6 -55 19 -133 29 -175 10 -43 21 -98 25 -124 3 -26 14 -76 25
-110 10 -35 26 -90 34 -123 29 -116 104 -340 131 -390 9 -16 16 -35 16 -42 0
-12 97 -224 122 -268 6 -11 31 -58 56 -105 24 -47 62 -112 83 -145 21 -33 44
-69 49 -80 45 -88 280 -383 416 -521 105 -106 352 -316 444 -377 30 -20 69
-46 85 -57 17 -12 50 -33 75 -49 25 -15 59 -36 75 -47 17 -10 48 -28 70 -40
22 -11 75 -39 118 -62 42 -23 82 -42 88 -42 6 0 23 -8 37 -19 15 -10 45 -24
67 -31 22 -7 51 -19 65 -26 36 -19 147 -63 200 -79 25 -7 65 -20 90 -29 94
-32 207 -66 270 -80 36 -8 94 -21 130 -29 156 -36 293 -61 405 -73 66 -7 176
-20 245 -28 407 -47 1061 -20 1412 60 59 13 115 24 125 24 18 0 150 36 258 71
33 11 78 24 100 30 22 5 59 18 81 29 23 10 55 22 70 26 16 4 49 17 74 30 25
13 50 24 56 24 7 0 36 13 66 28 29 16 62 31 73 35 11 3 31 13 45 21 14 9 36
21 50 27 14 6 48 23 75 39 28 16 70 41 95 55 154 88 373 247 550 400 107 93
396 382 435 434 l25 35 0 1593 c0 1564 0 1592 -19 1603 -13 7 -541 10 -1635
10 -1529 0 -1616 -1 -1623 -17 -9 -21 -1 -1258 8 -1268 4 -3 431 -6 950 -5
844 0 946 -1 967 -15 l22 -16 0 -652 c-1 -497 -4 -656 -13 -667 -38 -47 -313
-242 -412 -292 -16 -8 -61 -31 -100 -51 -110 -56 -200 -97 -214 -97 -7 0 -26
-7 -44 -17 -43 -22 -205 -70 -297 -87 -41 -8 -104 -22 -140 -30 -36 -9 -165
-21 -287 -28 -264 -14 -620 0 -768 31 -49 10 -115 22 -145 26 -30 3 -82 15
-115 25 -33 11 -87 26 -120 34 -72 18 -175 52 -230 76 -113 49 -212 95 -235
109 -8 5 -44 26 -80 46 -57 33 -107 65 -194 125 -245 168 -514 485 -659 775
-62 124 -97 201 -97 214 0 6 -6 22 -14 34 -8 12 -21 47 -30 77 -8 30 -24 82
-35 115 -37 114 -62 221 -76 320 -8 55 -22 150 -31 210 -24 164 -15 606 15
805 26 171 64 346 96 450 13 41 27 92 30 113 4 20 11 40 16 43 5 2 17 33 28
68 11 35 29 81 40 102 12 21 21 43 21 49 0 15 116 241 167 325 146 238 410
535 593 666 45 32 99 71 119 86 20 15 43 31 51 34 8 4 28 16 44 27 31 22 62
39 179 98 115 59 181 89 194 89 6 0 38 11 70 23 122 50 228 78 453 121 197 38
595 45 859 17 181 -20 561 -123 707 -192 22 -10 45 -19 51 -19 6 0 35 -13 65
-28 29 -16 62 -31 73 -35 11 -3 31 -13 45 -21 14 -9 36 -21 50 -26 25 -10 92
-49 146 -84 16 -11 49 -32 74 -47 98 -61 250 -176 310 -235 25 -24 51 -44 56
-44 13 0 894 895 894 908 0 20 -312 294 -422 370 -18 13 -62 45 -98 71 -60 43
-166 113 -258 168 -67 40 -119 67 -259 136 -76 38 -151 76 -168 84 -16 9 -57
26 -90 39 -33 12 -91 34 -130 49 -38 15 -90 34 -115 41 -25 8 -65 22 -90 31
-25 9 -72 22 -105 29 -33 7 -87 22 -119 34 -33 11 -71 20 -86 20 -15 0 -62 9
-106 20 -43 12 -135 27 -204 35 -69 8 -150 20 -180 25 -67 13 -656 21 -760 10z"/>
<path d="M72060 14433 c-25 -2 -99 -10 -165 -18 -66 -8 -162 -19 -213 -24 -91
-10 -233 -36 -362 -68 -36 -8 -92 -22 -125 -29 -66 -14 -165 -44 -265 -80 -36
-13 -78 -26 -95 -30 -16 -4 -50 -18 -74 -31 -24 -12 -50 -23 -57 -23 -20 0
-308 -137 -409 -194 -449 -253 -788 -551 -1130 -992 -61 -79 -185 -270 -243
-374 -14 -25 -38 -67 -53 -95 -16 -27 -35 -66 -44 -85 -8 -19 -19 -42 -25 -50
-6 -8 -17 -31 -25 -50 -9 -19 -24 -53 -35 -75 -40 -84 -113 -267 -135 -343 -8
-27 -22 -63 -30 -79 -8 -15 -15 -36 -15 -46 0 -10 -11 -52 -25 -95 -31 -97
-62 -221 -85 -337 -83 -431 -93 -533 -98 -965 -2 -284 0 -393 12 -490 8 -69
22 -183 31 -255 9 -71 22 -155 30 -185 8 -30 19 -86 25 -125 6 -38 19 -99 30
-135 10 -36 25 -90 34 -120 35 -132 105 -338 130 -385 9 -16 16 -35 16 -42 0
-23 133 -298 205 -424 205 -361 464 -671 775 -926 121 -99 317 -238 409 -289
18 -11 54 -31 80 -45 96 -54 287 -149 321 -160 19 -6 46 -18 60 -25 36 -19
147 -63 200 -79 25 -7 65 -20 90 -29 94 -32 207 -66 270 -80 36 -8 94 -21 130
-29 156 -36 293 -61 405 -73 66 -7 176 -20 245 -28 295 -34 828 -28 1140 14
256 34 580 107 725 164 22 8 49 15 60 16 12 0 25 4 30 9 6 5 38 19 73 31 35
11 80 29 100 40 20 11 41 20 47 20 13 0 334 163 405 205 290 175 486 330 758
599 101 100 199 202 218 227 l34 47 0 1590 c0 1563 0 1591 -19 1602 -13 7
-541 10 -1635 10 -1529 0 -1616 -1 -1623 -17 -9 -21 -1 -1258 8 -1268 4 -3
432 -6 953 -5 939 0 946 0 966 -20 20 -20 20 -28 18 -676 l-3 -655 -25 -20
c-223 -178 -522 -354 -715 -423 -22 -7 -58 -20 -80 -29 -70 -26 -209 -65 -255
-72 -25 -4 -81 -16 -125 -26 -50 -12 -160 -23 -297 -31 -259 -14 -625 0 -773
31 -50 10 -115 22 -145 26 -30 4 -91 17 -135 30 -44 12 -98 27 -120 33 -100
27 -192 61 -305 116 -30 14 -60 26 -66 26 -6 0 -27 11 -47 24 -19 13 -45 27
-57 31 -12 4 -41 20 -64 35 -22 15 -67 45 -100 66 -130 87 -161 111 -270 209
-184 166 -362 403 -476 635 -76 152 -90 184 -90 197 0 8 -7 24 -14 36 -8 12
-22 47 -30 77 -8 30 -21 71 -30 92 -8 20 -22 65 -30 100 -7 34 -21 92 -29 128
-9 36 -26 126 -39 200 -21 122 -23 166 -23 460 0 331 5 392 54 660 30 162 126
476 182 600 34 74 139 282 162 320 169 286 412 557 660 738 70 50 130 92 133
92 4 0 21 10 38 23 17 13 45 30 61 39 17 8 68 34 115 58 47 23 106 53 131 66
26 13 54 24 63 24 8 0 40 11 70 25 30 14 62 25 70 25 9 0 44 11 79 24 34 13
87 27 117 31 29 4 83 16 119 26 97 28 306 44 566 44 315 0 416 -12 680 -79
135 -34 316 -93 397 -129 21 -9 42 -17 48 -17 8 0 95 -41 155 -73 11 -6 34
-17 50 -24 17 -8 37 -19 45 -24 8 -5 31 -17 50 -26 19 -10 47 -27 62 -38 14
-11 49 -33 77 -50 72 -42 267 -188 321 -241 25 -24 50 -44 56 -44 6 0 95 87
199 193 104 105 298 302 431 437 132 135 246 255 252 266 10 19 4 28 -56 86
-69 66 -278 241 -348 291 -21 16 -71 52 -111 80 -39 29 -95 66 -123 82 -29 17
-64 39 -78 50 -15 12 -38 27 -52 34 -14 7 -47 25 -75 41 -27 16 -111 59 -185
95 -74 37 -148 74 -165 82 -16 9 -57 26 -90 39 -33 12 -91 34 -130 49 -38 15
-90 34 -115 41 -25 8 -65 22 -90 31 -25 9 -70 21 -100 28 -30 7 -86 22 -124
34 -37 11 -77 21 -89 21 -11 0 -68 11 -126 24 -95 22 -253 44 -471 67 -72 7
-527 9 -620 2z"/>
<path d="M82460 14375 c-14 -2 -119 -11 -235 -20 -115 -9 -257 -25 -315 -37
-58 -11 -132 -23 -166 -28 -34 -4 -92 -17 -130 -28 -38 -11 -98 -27 -134 -36
-163 -43 -299 -87 -376 -122 -28 -13 -57 -24 -65 -24 -8 0 -39 -12 -69 -26
-30 -14 -77 -37 -105 -50 -148 -68 -229 -110 -352 -181 -51 -29 -195 -122
-238 -154 -22 -16 -51 -37 -65 -47 -116 -78 -332 -266 -475 -413 -197 -203
-454 -539 -527 -689 -7 -14 -22 -38 -33 -55 -12 -16 -38 -64 -59 -105 -21 -41
-42 -82 -46 -90 -8 -14 -31 -64 -99 -214 -17 -37 -31 -73 -31 -80 0 -6 -12
-33 -25 -61 -14 -27 -25 -58 -25 -68 0 -9 -9 -36 -19 -60 -20 -42 -50 -141
-78 -252 -8 -33 -23 -89 -34 -125 -10 -36 -21 -87 -25 -115 -3 -27 -14 -84
-24 -125 -10 -41 -26 -145 -35 -230 -8 -85 -20 -191 -26 -235 -13 -103 -13
-616 0 -720 6 -44 18 -150 26 -235 9 -85 25 -189 35 -230 10 -41 21 -100 25
-130 3 -30 15 -82 25 -115 10 -33 21 -76 25 -95 7 -43 49 -182 81 -270 13 -36
26 -76 29 -90 4 -14 15 -44 26 -67 10 -24 19 -47 19 -52 0 -9 42 -106 80 -186
11 -22 26 -56 34 -75 8 -19 22 -46 30 -60 9 -14 21 -36 27 -50 6 -14 23 -47
39 -75 16 -27 41 -70 55 -95 69 -119 152 -243 231 -345 188 -244 363 -422 594
-605 145 -115 308 -230 327 -230 6 0 17 -7 24 -16 7 -9 32 -26 55 -38 47 -24
125 -65 169 -90 17 -9 35 -16 41 -16 6 0 22 -8 35 -19 13 -10 42 -24 64 -31
22 -7 47 -18 55 -25 8 -7 26 -16 40 -19 14 -4 50 -18 80 -31 52 -22 83 -33
198 -70 26 -9 61 -21 77 -27 17 -5 55 -17 85 -24 30 -8 87 -23 125 -35 39 -11
104 -26 145 -33 41 -8 111 -21 155 -30 396 -78 1091 -95 1470 -36 72 11 145
20 164 20 38 0 226 41 461 100 120 31 313 97 396 136 28 13 57 24 64 24 16 0
338 161 410 205 30 19 71 43 90 55 381 227 798 638 1063 1050 81 126 184 303
208 360 11 27 56 124 94 205 38 80 75 171 75 184 0 7 11 37 25 67 14 30 25 60
25 66 0 7 13 53 29 103 45 139 81 268 81 290 0 11 9 49 19 84 11 35 23 89 27
120 3 31 15 98 25 149 17 87 24 149 49 492 14 189 12 360 -9 625 -24 299 -68
551 -142 810 -16 55 -31 114 -35 130 -4 17 -10 35 -15 41 -5 5 -15 35 -23 65
-15 54 -41 125 -78 208 -11 25 -26 65 -35 90 -8 25 -21 53 -29 62 -8 8 -14 20
-14 24 0 9 -114 238 -150 303 -61 109 -176 284 -278 421 -214 287 -579 631
-857 808 -27 17 -61 40 -75 50 -13 10 -38 25 -55 34 -16 9 -66 37 -110 62 -44
26 -85 47 -91 47 -6 0 -17 7 -24 14 -6 8 -33 22 -60 31 -27 9 -54 22 -60 30
-6 8 -26 17 -43 21 -18 3 -50 17 -73 30 -22 13 -48 24 -57 24 -9 0 -40 11 -69
24 -29 14 -75 32 -103 41 -160 52 -247 78 -300 89 -33 8 -98 23 -145 34 -161
39 -318 64 -536 83 -213 18 -504 31 -554 24z m377 -1330 c98 -8 230 -26 293
-40 151 -34 255 -64 415 -122 42 -15 140 -59 165 -74 8 -4 43 -22 77 -39 34
-17 85 -46 113 -65 29 -19 54 -35 57 -35 9 0 161 -116 250 -192 210 -179 410
-445 548 -728 21 -41 48 -96 61 -121 13 -26 24 -52 24 -58 0 -7 8 -28 17 -49
28 -63 72 -193 93 -272 10 -41 26 -100 34 -130 9 -30 16 -66 16 -80 0 -14 9
-63 21 -110 23 -96 48 -444 42 -600 -9 -247 -24 -421 -42 -500 -12 -47 -21
-99 -21 -116 0 -18 -11 -71 -25 -118 -14 -47 -25 -94 -25 -104 -1 -9 -8 -35
-16 -57 -9 -22 -24 -67 -34 -100 -46 -149 -181 -440 -247 -532 -13 -17 -23
-34 -23 -37 0 -9 -62 -100 -105 -151 -22 -27 -48 -61 -56 -75 -27 -42 -193
-212 -254 -260 -31 -25 -83 -66 -114 -91 -31 -25 -69 -54 -86 -63 -16 -9 -50
-30 -75 -46 -41 -27 -66 -41 -165 -93 -51 -26 -139 -65 -165 -73 -14 -4 -41
-15 -60 -25 -19 -11 -43 -19 -52 -19 -10 0 -47 -11 -82 -24 -36 -14 -86 -28
-113 -32 -26 -4 -66 -13 -88 -21 -22 -8 -128 -26 -235 -40 -158 -21 -236 -26
-410 -26 -118 0 -250 5 -293 11 -42 7 -119 16 -170 22 -117 13 -280 51 -427
100 -168 56 -195 66 -305 120 -146 71 -201 105 -386 242 -160 119 -348 326
-481 531 -42 66 -142 248 -155 286 -7 19 -18 40 -24 47 -17 21 -103 250 -125
334 -8 30 -23 82 -34 115 -11 33 -22 80 -26 105 -3 25 -14 79 -25 120 -10 41
-23 127 -29 190 -6 63 -15 153 -20 200 -13 110 -13 421 0 530 5 47 15 132 20
190 6 58 18 132 27 165 8 33 21 89 28 125 19 92 95 328 134 415 77 169 80 175
128 260 12 22 32 58 44 79 77 141 280 388 434 528 99 91 310 244 397 289 127
66 272 135 323 153 22 7 58 21 80 29 155 58 415 114 605 131 212 18 338 19
547 1z"/>
<path d="M93325 14370 c-49 -4 -171 -15 -270 -24 -99 -9 -217 -25 -263 -36
-46 -11 -95 -20 -110 -20 -15 0 -67 -11 -117 -24 -49 -13 -117 -31 -150 -39
-33 -8 -73 -19 -90 -25 -34 -12 -138 -46 -205 -66 -54 -17 -136 -50 -206 -82
-28 -13 -54 -24 -59 -24 -9 0 -250 -121 -320 -160 -27 -16 -66 -37 -85 -47
-19 -9 -43 -23 -52 -31 -9 -8 -30 -21 -47 -30 -106 -59 -348 -242 -486 -368
-124 -113 -301 -294 -377 -386 -113 -137 -318 -423 -318 -443 0 -4 -10 -21
-22 -38 -24 -33 -55 -86 -88 -152 -11 -22 -24 -47 -30 -55 -5 -8 -26 -51 -46
-95 -19 -44 -42 -91 -49 -105 -41 -77 -164 -416 -198 -545 -56 -215 -86 -351
-98 -445 -5 -47 -14 -101 -19 -120 -19 -76 -31 -238 -36 -525 -7 -341 6 -641
35 -797 11 -57 22 -130 26 -163 4 -33 17 -103 31 -155 13 -52 24 -104 24 -115
0 -12 11 -54 25 -93 14 -39 25 -81 25 -92 0 -11 11 -46 24 -78 13 -31 27 -74
30 -96 4 -21 16 -55 27 -75 10 -20 19 -42 19 -49 0 -15 46 -126 85 -208 14
-28 25 -56 25 -63 0 -7 11 -29 25 -49 14 -20 25 -44 25 -53 0 -9 8 -27 18 -40
10 -13 37 -61 60 -106 23 -46 52 -98 65 -116 12 -19 33 -53 47 -76 14 -23 48
-74 77 -114 28 -40 62 -87 75 -105 144 -208 516 -574 743 -732 20 -14 51 -36
70 -50 19 -14 56 -38 82 -54 26 -16 59 -36 73 -45 89 -58 450 -241 475 -241 5
0 27 -9 49 -19 23 -11 66 -28 96 -39 30 -11 69 -24 85 -30 68 -25 165 -54 235
-72 41 -10 102 -25 135 -33 578 -144 1432 -164 1990 -45 55 12 123 24 151 28
28 5 82 17 120 29 38 11 94 27 124 35 55 14 129 37 185 58 17 6 59 21 95 33
36 13 79 30 95 39 17 9 34 16 38 16 13 0 185 82 327 157 47 24 58 30 125 72
22 14 52 32 67 41 156 90 408 291 586 469 96 96 295 328 342 397 150 224 201
302 218 334 7 14 26 48 42 75 16 28 35 66 44 85 9 19 20 42 26 50 6 8 17 31
25 50 9 19 24 53 35 75 38 81 80 177 80 186 0 6 8 26 17 47 35 78 90 246 127
387 9 33 25 89 35 125 11 36 23 88 26 115 4 28 15 84 26 125 10 42 23 118 29
170 5 52 18 142 28 200 14 88 17 172 17 510 0 424 -8 527 -62 805 -8 44 -23
121 -33 172 -9 51 -22 105 -28 120 -7 15 -18 57 -26 93 -13 58 -36 136 -68
225 -6 17 -17 50 -25 75 -8 25 -25 69 -39 98 -13 29 -24 58 -24 64 0 10 -27
73 -80 183 -11 22 -26 56 -35 75 -22 51 -115 222 -131 241 -8 8 -14 20 -14 25
0 9 -126 203 -190 294 -295 415 -789 845 -1215 1059 -22 11 -51 27 -65 35 -47
27 -269 126 -284 126 -6 0 -28 9 -48 20 -20 11 -58 25 -85 31 -26 7 -64 20
-83 31 -19 10 -42 18 -52 18 -9 0 -59 13 -110 29 -127 39 -300 81 -335 81 -15
0 -65 9 -111 20 -168 40 -757 78 -947 60z m450 -1326 c99 -8 216 -24 260 -34
44 -10 98 -22 120 -25 35 -6 125 -32 230 -67 179 -60 398 -171 553 -280 266
-187 498 -440 670 -728 59 -100 202 -405 202 -432 0 -8 7 -28 15 -45 20 -40
62 -180 85 -283 10 -47 23 -98 29 -115 14 -40 50 -329 62 -490 10 -131 5 -331
-12 -460 -5 -38 -16 -128 -24 -200 -9 -71 -20 -144 -26 -162 -6 -18 -19 -72
-29 -120 -24 -110 -57 -226 -80 -278 -9 -22 -21 -56 -25 -75 -4 -19 -18 -55
-31 -80 -13 -25 -24 -50 -24 -56 0 -13 -104 -217 -148 -292 -126 -210 -295
-409 -482 -566 -108 -91 -252 -190 -345 -236 -22 -11 -47 -24 -55 -29 -27 -17
-148 -71 -160 -71 -6 0 -32 -11 -58 -24 -26 -13 -65 -27 -87 -31 -22 -4 -44
-10 -50 -14 -15 -11 -76 -29 -120 -37 -22 -3 -71 -15 -110 -25 -132 -34 -423
-63 -635 -63 -297 0 -625 47 -848 120 -40 13 -77 24 -82 24 -5 0 -34 11 -64
25 -30 14 -58 25 -62 25 -8 0 -125 53 -159 73 -11 6 -40 21 -65 34 -25 13 -54
29 -65 36 -132 84 -178 116 -239 166 -207 169 -399 393 -517 601 -23 41 -50
86 -59 100 -10 14 -23 42 -29 62 -7 20 -18 41 -26 48 -7 6 -16 23 -20 38 -3
14 -17 49 -29 77 -57 126 -150 422 -172 550 -62 354 -59 314 -59 710 0 343 2
378 22 480 13 61 27 137 32 170 5 33 16 80 24 105 8 25 18 61 22 80 9 45 74
242 84 255 5 5 11 23 15 38 7 29 120 264 159 329 141 239 312 446 500 605 130
111 147 123 302 222 65 41 314 164 385 189 160 57 273 92 294 92 11 0 67 11
125 25 113 27 347 51 521 54 58 0 186 -6 285 -15z"/>
<path d="M19287 14043 c-16 -19 -17 -217 -17 -3822 l0 -3801 26 -10 c15 -6
285 -10 697 -10 593 0 675 2 695 16 l22 15 0 1254 c0 1230 0 1254 19 1265 13
7 258 10 724 10 657 0 706 -1 725 -17 11 -10 51 -54 89 -99 37 -44 115 -135
173 -200 58 -66 130 -149 160 -184 30 -36 91 -105 135 -155 78 -87 271 -310
484 -559 57 -66 131 -152 166 -191 70 -79 195 -223 270 -311 28 -32 84 -97
126 -144 41 -47 129 -148 194 -225 65 -77 138 -160 161 -185 23 -25 83 -94
134 -155 60 -72 102 -114 123 -122 48 -18 1582 -18 1617 0 54 27 39 75 -53
178 -39 45 -94 107 -121 138 -62 72 -142 162 -297 335 -68 76 -155 175 -194
220 -38 44 -114 131 -170 191 -130 143 -216 240 -304 343 -39 46 -124 142
-189 215 -66 73 -195 218 -287 322 -92 105 -173 195 -179 200 -6 6 -54 60
-106 120 -52 61 -157 179 -233 263 -149 165 -153 173 -79 186 20 4 64 15 97
26 33 10 78 21 100 25 21 4 52 13 68 22 16 8 50 21 76 28 91 25 345 144 451
210 30 19 68 42 84 51 16 9 38 25 49 35 12 10 24 19 29 19 27 0 297 253 390
366 140 171 285 434 362 659 29 83 77 256 87 315 5 30 20 107 32 170 20 104
22 146 22 445 0 305 -2 339 -23 445 -45 223 -83 373 -105 416 -8 16 -18 44
-22 63 -4 19 -18 54 -31 79 -13 25 -24 50 -24 56 0 12 -61 132 -103 206 -15
25 -35 62 -46 82 -12 20 -35 57 -53 83 -18 26 -40 57 -48 69 -47 69 -191 234
-276 316 -123 119 -284 242 -425 325 -28 17 -66 40 -84 51 -18 12 -44 25 -56
29 -13 4 -35 15 -49 25 -14 10 -36 21 -50 25 -14 4 -45 18 -70 31 -25 13 -52
24 -60 24 -8 0 -28 7 -45 16 -36 19 -216 79 -265 89 -19 4 -55 14 -80 22 -41
13 -87 22 -350 69 -91 16 -699 24 -3010 39 -1044 7 -1065 7 -1083 -12z m3873
-1363 c80 -11 168 -29 195 -39 28 -11 63 -22 80 -26 46 -10 237 -109 302 -156
73 -53 198 -179 243 -244 43 -61 100 -155 100 -164 0 -3 11 -28 24 -56 51
-107 77 -207 93 -366 15 -143 15 -168 1 -305 -19 -171 -47 -270 -118 -415 -57
-114 -111 -195 -182 -269 -63 -67 -150 -140 -196 -166 -18 -11 -54 -31 -80
-46 -88 -52 -169 -83 -332 -128 -132 -36 -296 -41 -1453 -38 -1095 3 -1109 3
-1123 23 -8 11 -13 29 -10 40 3 11 6 543 6 1182 0 1043 2 1163 16 1177 14 14
132 16 1152 16 1086 0 1144 -1 1282 -20z"/>
<path d="M29418 14030 c-18 -14 -18 -156 -18 -3810 0 -3560 1 -3796 17 -3807
25 -19 1361 -19 1386 0 16 11 17 246 17 3804 0 2085 -3 3798 -6 3807 -3 9 -11
16 -18 16 -6 0 -315 1 -685 3 -588 2 -677 0 -693 -13z"/>
<path d="M34838 14026 c-17 -19 -18 -169 -18 -3807 l0 -3788 22 -15 c20 -14
103 -16 698 -16 596 0 678 2 698 16 l22 15 0 2497 c0 1373 0 2503 0 2510 0 36
52 -6 115 -93 16 -22 52 -67 79 -101 28 -34 123 -152 211 -264 88 -112 194
-244 235 -294 42 -50 89 -109 105 -131 17 -22 64 -81 105 -132 41 -50 113
-139 160 -198 47 -59 92 -116 100 -126 8 -10 76 -95 150 -190 74 -94 171 -215
215 -269 44 -54 89 -110 100 -126 11 -15 56 -71 100 -125 44 -53 143 -177 220
-275 77 -97 172 -216 210 -263 39 -47 84 -104 100 -126 16 -22 52 -67 80 -100
28 -33 76 -91 105 -130 29 -38 79 -101 111 -140 31 -38 125 -155 208 -260 233
-293 310 -390 386 -484 39 -47 95 -117 125 -156 29 -38 79 -101 111 -140 31
-38 123 -153 204 -255 519 -654 513 -647 558 -655 18 -3 276 -5 575 -3 528 3
544 4 558 23 8 11 12 26 9 33 -3 8 -5 1709 -5 3781 0 2998 -3 3771 -12 3784
-12 16 -64 17 -707 17 -510 1 -697 -2 -707 -11 -12 -10 -14 -390 -14 -2544 0
-2153 -2 -2534 -14 -2538 -9 -4 -55 47 -132 145 -66 82 -154 193 -196 247 -43
53 -134 168 -203 256 -69 88 -161 205 -205 260 -148 185 -225 283 -265 335
-22 29 -76 98 -121 154 -44 55 -135 171 -203 256 -183 232 -268 340 -351 444
-41 52 -136 172 -210 267 -74 94 -169 214 -210 265 -89 111 -134 168 -257 326
-50 65 -114 146 -142 180 -28 35 -109 137 -180 228 -72 91 -164 208 -206 260
-41 52 -134 169 -205 260 -72 91 -154 194 -183 230 -28 35 -73 91 -98 125 -25
33 -84 110 -132 170 -48 61 -123 155 -167 210 -43 55 -104 132 -135 170 -31
39 -93 118 -138 177 -45 58 -91 111 -102 118 -14 7 -194 11 -579 13 -543 2
-560 1 -578 -17z"/>
<path d="M47871 14042 c-2461 -2 -3096 -5 -3103 -15 -4 -6 -8 -296 -8 -643 0
-477 3 -633 12 -642 9 -9 288 -12 1193 -12 1054 0 1183 -2 1203 -16 l22 -15 0
-3136 c0 -2200 3 -3140 10 -3147 17 -17 1380 -21 1403 -4 16 12 17 182 17
3150 0 2842 1 3138 16 3152 14 14 135 16 1198 16 930 0 1186 3 1199 13 15 11
17 64 17 641 1 683 4 650 -55 657 -16 2 -1422 3 -3124 1z"/>
<path d="M56953 14042 l-751 -2 -22 -45 c-12 -25 -26 -47 -31 -51 -5 -3 -9
-13 -9 -22 0 -9 -14 -46 -31 -82 -17 -36 -42 -87 -54 -115 -50 -113 -77 -173
-99 -220 -13 -27 -29 -66 -36 -85 -8 -19 -19 -42 -25 -50 -7 -8 -16 -26 -20
-40 -4 -14 -21 -54 -37 -90 -17 -36 -38 -83 -48 -105 -40 -92 -68 -154 -98
-216 -18 -36 -32 -70 -32 -74 0 -4 -12 -33 -27 -64 -14 -31 -38 -81 -51 -111
-14 -30 -35 -79 -48 -108 -13 -29 -35 -76 -48 -105 -74 -158 -86 -184 -86
-193 0 -5 -11 -31 -24 -59 -14 -27 -37 -77 -52 -110 -15 -33 -37 -82 -49 -110
-13 -27 -34 -75 -48 -105 -14 -30 -39 -85 -56 -122 -17 -37 -31 -70 -31 -74 0
-3 -14 -36 -31 -73 -54 -116 -67 -145 -99 -216 -17 -38 -40 -88 -50 -110 -10
-22 -30 -67 -45 -100 -15 -33 -40 -88 -56 -121 -16 -34 -29 -65 -29 -69 0 -5
-14 -38 -31 -74 -17 -36 -42 -91 -56 -121 -13 -30 -33 -73 -43 -95 -10 -22
-32 -71 -49 -110 -18 -38 -43 -93 -56 -120 -14 -28 -25 -54 -25 -59 0 -9 -12
-35 -86 -193 -24 -52 -48 -105 -96 -213 -13 -30 -36 -80 -51 -110 -15 -30 -27
-60 -27 -65 0 -6 -14 -39 -31 -75 -17 -36 -42 -89 -55 -117 -13 -29 -36 -79
-50 -110 -14 -32 -37 -79 -50 -106 -13 -26 -24 -52 -24 -58 0 -7 -14 -42 -32
-78 -30 -62 -49 -104 -105 -228 -49 -112 -71 -160 -102 -223 -17 -36 -31 -69
-31 -75 0 -5 -11 -33 -26 -62 -14 -29 -37 -78 -51 -110 -14 -32 -36 -82 -49
-111 -13 -29 -35 -76 -48 -105 -14 -28 -38 -82 -55 -118 -17 -36 -31 -71 -31
-78 0 -7 -8 -25 -19 -39 -10 -15 -22 -38 -26 -52 -3 -14 -18 -50 -32 -80 -48
-103 -72 -155 -103 -225 -17 -38 -40 -88 -50 -110 -11 -22 -47 -103 -81 -180
-34 -77 -72 -165 -86 -195 -14 -30 -36 -80 -50 -110 -13 -30 -33 -73 -43 -95
-28 -61 -64 -141 -105 -235 -20 -47 -49 -110 -63 -140 -13 -30 -36 -80 -49
-110 -13 -30 -35 -76 -48 -103 -28 -52 -31 -77 -13 -95 9 -9 185 -12 729 -12
394 0 737 3 763 6 39 6 50 12 59 33 6 14 32 72 59 129 26 56 48 106 48 109 0
6 13 35 86 190 34 72 73 158 101 221 12 28 34 76 47 105 14 28 39 84 56 122
17 39 42 94 56 122 13 29 36 79 51 110 14 32 36 79 49 104 13 26 24 53 24 61
0 7 16 39 36 71 l36 57 1981 0 c1090 0 1987 -4 1993 -8 6 -4 28 -43 48 -87 21
-44 48 -104 62 -132 50 -108 73 -160 104 -233 32 -75 65 -149 100 -225 11 -22
38 -83 60 -135 23 -52 48 -105 56 -117 8 -12 14 -28 14 -34 0 -7 14 -42 31
-78 17 -36 42 -91 56 -121 13 -30 33 -73 43 -95 11 -22 30 -66 44 -98 18 -40
33 -60 51 -67 17 -7 294 -9 777 -8 703 3 752 4 762 21 8 13 8 21 -2 35 -7 9
-19 33 -27 52 -9 19 -24 53 -35 75 -10 22 -33 74 -51 115 -33 76 -76 172 -109
245 -10 22 -33 72 -50 110 -17 39 -40 88 -50 110 -11 22 -46 103 -80 180 -34
77 -69 158 -80 180 -10 22 -33 72 -50 110 -31 70 -55 122 -103 225 -14 30 -29
66 -32 80 -4 14 -16 37 -26 52 -11 14 -19 32 -19 39 0 7 -14 42 -31 78 -59
127 -79 171 -102 224 -13 28 -35 77 -50 107 -14 30 -29 66 -32 80 -4 14 -16
37 -26 52 -11 14 -19 32 -19 40 0 7 -14 42 -31 78 -17 36 -42 89 -55 118 -13
28 -36 78 -50 110 -14 31 -37 78 -50 105 -13 26 -24 52 -24 58 0 7 -14 42 -31
78 -31 64 -51 108 -104 226 -63 139 -74 164 -104 225 -17 36 -31 69 -31 75 0
5 -11 32 -24 60 -23 46 -41 85 -101 220 -12 28 -37 79 -54 115 -17 36 -31 72
-31 81 0 9 -7 22 -14 29 -8 6 -20 28 -26 48 -7 20 -24 62 -38 92 -14 30 -37
80 -50 110 -27 59 -53 117 -101 221 -17 36 -31 73 -31 81 0 9 -7 21 -15 28 -8
6 -17 22 -21 33 -6 21 -50 124 -101 237 -14 30 -36 80 -50 110 -13 30 -33 73
-43 95 -28 61 -64 141 -105 235 -20 47 -48 110 -62 140 -14 30 -36 80 -50 110
-14 30 -35 78 -48 105 -50 110 -65 143 -100 225 -21 47 -49 110 -63 140 -13
30 -36 80 -49 110 -26 59 -43 97 -91 200 -16 36 -33 76 -37 90 -4 14 -13 32
-20 40 -7 8 -16 26 -20 40 -4 14 -21 54 -38 90 -16 36 -41 90 -54 120 -26 59
-44 98 -91 200 -16 36 -33 76 -37 90 -4 14 -13 32 -20 40 -7 8 -16 26 -20 40
-4 14 -21 54 -38 90 -16 36 -41 90 -54 120 -24 55 -39 87 -86 190 -14 30 -42
93 -62 140 -20 47 -48 107 -61 134 -13 28 -24 55 -24 61 0 19 -33 42 -65 46
-16 2 -368 3 -782 1z m77 -1697 c30 -84 60 -155 74 -178 8 -12 17 -33 21 -47
6 -24 15 -45 79 -181 14 -31 26 -59 26 -63 0 -7 34 -84 80 -181 11 -22 33 -74
50 -115 17 -41 42 -98 55 -126 14 -28 25 -55 25 -59 0 -4 12 -33 26 -64 42
-89 70 -151 100 -221 15 -36 40 -93 56 -127 15 -34 28 -67 28 -72 0 -6 11 -32
24 -58 47 -95 76 -159 76 -168 0 -5 11 -32 24 -60 43 -89 86 -185 86 -192 0
-4 11 -30 24 -58 14 -27 39 -84 56 -125 17 -41 42 -98 56 -125 13 -28 24 -55
24 -60 0 -6 9 -28 19 -50 11 -22 31 -66 45 -98 14 -31 37 -81 51 -111 14 -29
25 -56 25 -60 0 -4 14 -36 30 -71 17 -35 30 -67 30 -70 0 -4 14 -36 31 -73 16
-37 38 -85 48 -107 10 -22 24 -56 32 -75 7 -19 19 -43 26 -52 19 -21 29 -93
15 -102 -17 -10 -2765 -7 -2775 3 -12 12 9 86 39 138 13 23 24 47 24 55 0 7
11 35 24 63 14 27 39 84 57 125 32 77 45 106 98 222 17 37 31 70 31 73 0 3 13
34 28 68 16 34 39 87 52 117 13 30 35 82 50 115 15 33 31 71 35 85 4 14 13 32
20 40 7 8 16 26 20 40 7 25 35 88 81 185 13 28 24 55 24 60 0 5 11 32 24 60
14 27 39 84 56 125 17 41 42 98 56 125 13 28 24 54 24 58 0 7 43 103 86 192
13 28 24 55 24 60 0 9 29 73 76 168 13 26 24 52 24 58 0 9 11 34 86 196 13 28
24 55 24 60 0 4 9 26 19 48 38 78 81 174 81 181 0 4 11 30 24 58 13 28 38 85
56 126 17 41 40 93 50 115 11 22 29 63 40 90 46 110 71 120 100 40z"/>
<path d="M100979 14032 c-18 -13 -19 -116 -19 -3813 l0 -3799 26 -10 c31 -12
2949 -13 3234 -1 189 8 431 36 595 68 44 8 123 23 176 33 53 10 105 23 115 28
11 6 48 16 84 22 36 7 76 19 90 26 14 7 50 19 80 28 75 21 208 70 245 90 17 9
36 16 44 16 7 0 34 11 60 24 25 13 84 43 131 67 169 84 256 132 280 154 9 8
20 15 23 15 4 0 35 19 68 43 33 23 68 47 77 52 9 6 48 34 87 64 237 184 402
345 578 566 153 191 211 277 336 500 60 108 161 316 161 333 0 7 7 23 15 35 8
13 23 48 34 78 11 29 27 77 37 104 9 28 28 78 41 113 12 34 23 69 23 77 0 9
11 50 24 93 32 101 72 277 86 377 7 44 18 107 26 140 17 78 44 470 44 655 0
192 -26 571 -45 663 -8 41 -21 116 -29 168 -19 129 -70 334 -123 499 -8 25
-21 68 -29 95 -9 28 -24 69 -35 92 -10 24 -19 48 -19 55 0 7 -14 40 -30 73
-16 33 -30 66 -30 72 0 7 -11 34 -24 60 -14 27 -42 83 -63 125 -49 101 -84
163 -156 283 -19 31 -136 206 -160 241 -134 185 -426 491 -581 609 -43 33
-104 80 -136 105 -32 25 -71 53 -86 62 -16 10 -49 31 -74 48 -25 16 -59 37
-77 45 -17 8 -35 20 -38 26 -4 6 -26 19 -49 30 -22 11 -78 38 -123 62 -45 23
-103 52 -130 64 -26 12 -73 32 -103 46 -30 14 -66 28 -80 32 -14 4 -43 15 -65
25 -51 23 -150 56 -240 79 -38 10 -90 26 -114 35 -24 9 -53 16 -65 16 -12 0
-64 11 -116 24 -52 13 -120 27 -150 31 -30 4 -106 15 -169 26 -207 35 -453 40
-2070 42 -1282 2 -1577 0 -1592 -11z m3381 -1376 c250 -45 297 -54 324 -65 16
-6 49 -16 75 -21 77 -17 287 -100 391 -155 112 -60 126 -68 221 -131 198 -133
404 -341 555 -564 51 -75 57 -85 105 -176 14 -27 30 -58 36 -69 35 -64 73
-147 73 -158 0 -7 9 -31 20 -52 11 -22 25 -58 31 -80 5 -22 18 -62 29 -90 31
-85 60 -212 102 -455 21 -121 23 -165 23 -430 -1 -259 -3 -308 -22 -405 -12
-60 -24 -134 -28 -164 -6 -55 -43 -201 -71 -281 -8 -25 -22 -69 -30 -99 -9
-30 -21 -63 -29 -75 -7 -11 -16 -32 -20 -46 -10 -35 -101 -225 -138 -285 -102
-169 -211 -309 -340 -436 -62 -62 -123 -119 -137 -128 -14 -8 -52 -36 -85 -61
-98 -74 -185 -128 -290 -179 -39 -19 -82 -41 -97 -48 -26 -13 -58 -25 -178
-67 -94 -33 -147 -48 -210 -62 -36 -7 -105 -23 -155 -34 -182 -40 -434 -50
-1293 -50 -714 0 -802 2 -816 16 -14 14 -16 249 -16 2434 0 2293 1 2420 18
2430 12 8 288 9 942 6 771 -4 939 -7 1010 -20z"/>
</g>
</svg>
